<svg xmlns="http://www.w3.org/2000/svg" xmlns:xlink="http://www.w3.org/1999/xlink" viewBox="0 0 1920 1080"><defs><clipPath id="clip-path"><rect width="1920" height="1080" transform="translate(1920 1080) rotate(180)" fill="none"/></clipPath></defs><g style="isolation:isolate"><g id="katman_1" data-name="katman 1"><g clip-path="url(#clip-path)"><path d="M843.29,1080a5.24,5.24,0,0,1,1.92-6.63,4.71,4.71,0,0,1,6.61,1.87A5.36,5.36,0,0,1,852,1080Z" fill="#bfddeb" style="mix-blend-mode:multiply"/><path d="M843.27,1080a5.33,5.33,0,0,1,.17-4.76,4.7,4.7,0,0,1,6.61-1.87A5.22,5.22,0,0,1,852,1080Z" fill="#bfddeb" style="mix-blend-mode:multiply"/><path d="M1099.73,1080a5.24,5.24,0,0,1,1.92-6.63,4.7,4.7,0,0,1,6.61,1.87,5.33,5.33,0,0,1,.17,4.76Z" fill="#bfddeb" style="mix-blend-mode:multiply"/><path d="M1099.71,1080a5.33,5.33,0,0,1,.17-4.76,4.71,4.71,0,0,1,6.61-1.87,5.24,5.24,0,0,1,1.92,6.63Z" fill="#bfddeb" style="mix-blend-mode:multiply"/><path d="M1356.18,1080a5.22,5.22,0,0,1,1.91-6.63,4.72,4.72,0,0,1,6.62,1.87,5.36,5.36,0,0,1,.16,4.76Z" fill="#bfddeb" style="mix-blend-mode:multiply"/><path d="M1356.15,1080a5.36,5.36,0,0,1,.17-4.76,4.71,4.71,0,0,1,6.61-1.87,5.24,5.24,0,0,1,1.92,6.63Z" fill="#bfddeb" style="mix-blend-mode:multiply"/><path d="M1612.62,1080a5.24,5.24,0,0,1,1.92-6.63,4.71,4.71,0,0,1,6.61,1.87,5.36,5.36,0,0,1,.17,4.76Z" fill="#bfddeb" style="mix-blend-mode:multiply"/><path d="M847.63,920.94a.66.66,0,0,0-.65.68v156.17a.65.65,0,1,0,1.29,0V921.62A.66.66,0,0,0,847.63,920.94Z" fill="#bfddeb" style="mix-blend-mode:multiply"/><path d="M852.47,921.62a4.85,4.85,0,1,0-4.84,5.1A5,5,0,0,0,852.47,921.62Z" fill="#bfddeb" style="mix-blend-mode:multiply"/><path d="M843.28,1080a5.22,5.22,0,0,1-.49-2.21,4.84,4.84,0,1,1,9.67,0A5.22,5.22,0,0,1,852,1080Z" fill="#bfddeb" style="mix-blend-mode:multiply"/><path d="M843.26,1080a5.24,5.24,0,0,1,1.92-6.63,4.71,4.71,0,0,1,6.61,1.87A5.33,5.33,0,0,1,852,1080Z" fill="#bfddeb" style="mix-blend-mode:multiply"/><path d="M847.6,920.94a.65.65,0,0,0-.64.68v156.17a.64.64,0,1,0,1.28,0V921.62A.66.66,0,0,0,847.6,920.94Z" fill="#bfddeb" style="mix-blend-mode:multiply"/><path d="M852.44,921.62a4.85,4.85,0,1,0-4.84,5.1A5,5,0,0,0,852.44,921.62Z" fill="#bfddeb" style="mix-blend-mode:multiply"/><path d="M843.26,1080a5.23,5.23,0,0,1-.5-2.21,4.85,4.85,0,1,1,9.68,0,5.23,5.23,0,0,1-.5,2.21Z" fill="#bfddeb" style="mix-blend-mode:multiply"/><path d="M975.83,842.85a.57.57,0,0,0-.32.1L847.28,921a.7.7,0,0,0-.24.93.64.64,0,0,0,.88.25l128.24-78.09a.7.7,0,0,0,.23-.93A.65.65,0,0,0,975.83,842.85Z" fill="#bfddeb" style="mix-blend-mode:multiply"/><path d="M845.18,917.2a5.26,5.26,0,0,0-1.77,7A4.71,4.71,0,0,0,850,926a5.26,5.26,0,0,0,1.77-7A4.71,4.71,0,0,0,845.18,917.2Z" fill="#bfddeb" style="mix-blend-mode:multiply"/><path d="M973.42,839.11A4.71,4.71,0,0,1,980,841a5.26,5.26,0,0,1-1.77,7,4.71,4.71,0,0,1-6.62-1.86A5.27,5.27,0,0,1,973.42,839.11Z" fill="#bfddeb" style="mix-blend-mode:multiply"/><path d="M975.83,842.85a.65.65,0,0,0-.55.34.69.69,0,0,0,.23.93l128.24,78.09a.64.64,0,0,0,.88-.25.7.7,0,0,0-.24-.93L976.16,843A.6.6,0,0,0,975.83,842.85Z" fill="#bfddeb" style="mix-blend-mode:multiply"/><path d="M978.26,839.11a4.72,4.72,0,0,0-6.62,1.87,5.26,5.26,0,0,0,1.78,7,4.7,4.7,0,0,0,6.61-1.86A5.28,5.28,0,0,0,978.26,839.11Z" fill="#bfddeb" style="mix-blend-mode:multiply"/><path d="M1106.49,917.2a5.26,5.26,0,0,1,1.77,7,4.7,4.7,0,0,1-6.61,1.87,5.26,5.26,0,0,1-1.77-7A4.71,4.71,0,0,1,1106.49,917.2Z" fill="#bfddeb" style="mix-blend-mode:multiply"/><path d="M1104.07,920.94a.66.66,0,0,0-.64.68v156.17a.65.65,0,1,0,1.29,0V921.62A.65.65,0,0,0,1104.07,920.94Z" fill="#bfddeb" style="mix-blend-mode:multiply"/><path d="M1108.91,921.62a4.85,4.85,0,1,0-4.84,5.1A5,5,0,0,0,1108.91,921.62Z" fill="#bfddeb" style="mix-blend-mode:multiply"/><path d="M1099.73,1080a5.23,5.23,0,0,1-.5-2.21,4.85,4.85,0,1,1,9.68,0,5.23,5.23,0,0,1-.5,2.21Z" fill="#bfddeb" style="mix-blend-mode:multiply"/><path d="M1099.71,1080a5.22,5.22,0,0,1,1.91-6.63,4.7,4.7,0,0,1,6.61,1.87,5.33,5.33,0,0,1,.17,4.76Z" fill="#bfddeb" style="mix-blend-mode:multiply"/><path d="M843.24,1080a5.33,5.33,0,0,1,.17-4.76,4.71,4.71,0,0,1,6.61-1.87,5.24,5.24,0,0,1,1.92,6.63Z" fill="#bfddeb" style="mix-blend-mode:multiply"/><path d="M1104,920.94a.66.66,0,0,0-.64.68v156.17a.65.65,0,1,0,1.29,0V921.62A.66.66,0,0,0,1104,920.94Z" fill="#bfddeb" style="mix-blend-mode:multiply"/><path d="M1108.88,921.62a4.85,4.85,0,1,0-4.84,5.1A5,5,0,0,0,1108.88,921.62Z" fill="#bfddeb" style="mix-blend-mode:multiply"/><path d="M1099.7,1080a5.23,5.23,0,0,1-.5-2.21,4.85,4.85,0,1,1,9.68,0,5.22,5.22,0,0,1-.49,2.21Z" fill="#bfddeb" style="mix-blend-mode:multiply"/><path d="M1232.28,842.85a.55.55,0,0,0-.32.1L1103.72,921a.7.7,0,0,0-.23.93.63.63,0,0,0,.88.25l128.23-78.09a.71.71,0,0,0,.24-.93A.66.66,0,0,0,1232.28,842.85Z" fill="#bfddeb" style="mix-blend-mode:multiply"/><path d="M1101.62,917.2a5.27,5.27,0,0,0-1.77,7,4.71,4.71,0,0,0,6.61,1.87,5.25,5.25,0,0,0,1.77-7A4.7,4.7,0,0,0,1101.62,917.2Z" fill="#bfddeb" style="mix-blend-mode:multiply"/><path d="M1229.86,839.11a4.71,4.71,0,0,1,6.61,1.87,5.25,5.25,0,0,1-1.77,7,4.7,4.7,0,0,1-6.61-1.86A5.26,5.26,0,0,1,1229.86,839.11Z" fill="#bfddeb" style="mix-blend-mode:multiply"/><path d="M1232.28,842.85a.66.66,0,0,0-.56.34.7.7,0,0,0,.24.93l128.23,78.09a.64.64,0,0,0,.88-.25.71.71,0,0,0-.23-.93L1232.6,843A.55.55,0,0,0,1232.28,842.85Z" fill="#bfddeb" style="mix-blend-mode:multiply"/><path d="M1234.7,839.11a4.7,4.7,0,0,0-6.61,1.87,5.24,5.24,0,0,0,1.77,7,4.7,4.7,0,0,0,6.61-1.86A5.27,5.27,0,0,0,1234.7,839.11Z" fill="#bfddeb" style="mix-blend-mode:multiply"/><path d="M1362.93,917.2a5.26,5.26,0,0,1,1.78,7,4.72,4.72,0,0,1-6.62,1.87,5.27,5.27,0,0,1-1.77-7A4.71,4.71,0,0,1,1362.93,917.2Z" fill="#bfddeb" style="mix-blend-mode:multiply"/><path d="M1360.51,920.94a.66.66,0,0,0-.64.68v156.17a.65.65,0,1,0,1.29,0V921.62A.66.66,0,0,0,1360.51,920.94Z" fill="#bfddeb" style="mix-blend-mode:multiply"/><path d="M1365.35,921.62a4.85,4.85,0,1,0-4.84,5.1A5,5,0,0,0,1365.35,921.62Z" fill="#bfddeb" style="mix-blend-mode:multiply"/><path d="M1356.17,1080a5.23,5.23,0,0,1-.5-2.21,4.85,4.85,0,1,1,9.68,0,5.38,5.38,0,0,1-.49,2.21Z" fill="#bfddeb" style="mix-blend-mode:multiply"/><path d="M1356.15,1080a5.24,5.24,0,0,1,1.92-6.63,4.71,4.71,0,0,1,6.61,1.87,5.36,5.36,0,0,1,.17,4.76Z" fill="#bfddeb" style="mix-blend-mode:multiply"/><path d="M1099.68,1080a5.36,5.36,0,0,1,.17-4.76,4.71,4.71,0,0,1,6.61-1.87,5.24,5.24,0,0,1,1.92,6.63Z" fill="#bfddeb" style="mix-blend-mode:multiply"/><path d="M1360.49,920.94a.66.66,0,0,0-.65.68v156.17a.65.65,0,1,0,1.29,0V921.62A.66.66,0,0,0,1360.49,920.94Z" fill="#bfddeb" style="mix-blend-mode:multiply"/><path d="M1365.33,921.62a4.85,4.85,0,1,0-4.84,5.1A5,5,0,0,0,1365.33,921.62Z" fill="#bfddeb" style="mix-blend-mode:multiply"/><path d="M1356.14,1080a5.38,5.38,0,0,1-.49-2.21,4.85,4.85,0,1,1,9.68,0,5.23,5.23,0,0,1-.5,2.21Z" fill="#bfddeb" style="mix-blend-mode:multiply"/><path d="M1488.72,842.85a.55.55,0,0,0-.32.1L1360.16,921a.71.71,0,0,0-.23.93.64.64,0,0,0,.88.25L1489,844.12a.7.7,0,0,0,.24-.93A.66.66,0,0,0,1488.72,842.85Z" fill="#bfddeb" style="mix-blend-mode:multiply"/><path d="M1358.07,917.2a5.25,5.25,0,0,0-1.77,7,4.7,4.7,0,0,0,6.61,1.87,5.27,5.27,0,0,0,1.77-7A4.71,4.71,0,0,0,1358.07,917.2Z" fill="#bfddeb" style="mix-blend-mode:multiply"/><path d="M1486.3,839.11a4.7,4.7,0,0,1,6.61,1.87,5.24,5.24,0,0,1-1.77,7,4.7,4.7,0,0,1-6.61-1.86A5.28,5.28,0,0,1,1486.3,839.11Z" fill="#bfddeb" style="mix-blend-mode:multiply"/><path d="M1488.72,842.85a.66.66,0,0,0-.56.34.71.71,0,0,0,.24.93l128.24,78.09a.64.64,0,0,0,.88-.25.71.71,0,0,0-.24-.93L1489,843A.55.55,0,0,0,1488.72,842.85Z" fill="#bfddeb" style="mix-blend-mode:multiply"/><path d="M1491.14,839.11a4.71,4.71,0,0,0-6.61,1.87,5.25,5.25,0,0,0,1.77,7,4.7,4.7,0,0,0,6.61-1.86A5.26,5.26,0,0,0,1491.14,839.11Z" fill="#bfddeb" style="mix-blend-mode:multiply"/><path d="M1619.38,917.2a5.27,5.27,0,0,1,1.77,7,4.71,4.71,0,0,1-6.61,1.87,5.25,5.25,0,0,1-1.77-7A4.7,4.7,0,0,1,1619.38,917.2Z" fill="#bfddeb" style="mix-blend-mode:multiply"/><path d="M1617,920.94a.66.66,0,0,0-.65.68v156.17a.65.65,0,1,0,1.29,0V921.62A.66.66,0,0,0,1617,920.94Z" fill="#bfddeb" style="mix-blend-mode:multiply"/><path d="M1621.8,921.62a4.85,4.85,0,1,0-4.84,5.1A5,5,0,0,0,1621.8,921.62Z" fill="#bfddeb" style="mix-blend-mode:multiply"/><path d="M1612.61,1080a5.22,5.22,0,0,1-.49-2.21,4.85,4.85,0,1,1,9.68,0,5.23,5.23,0,0,1-.5,2.21Z" fill="#bfddeb" style="mix-blend-mode:multiply"/><path d="M1612.59,1080a5.24,5.24,0,0,1,1.92-6.63,4.71,4.71,0,0,1,6.61,1.87,5.33,5.33,0,0,1,.17,4.76Z" fill="#bfddeb" style="mix-blend-mode:multiply"/><path d="M1356.13,1080a5.33,5.33,0,0,1,.17-4.76,4.7,4.7,0,0,1,6.61-1.87,5.22,5.22,0,0,1,1.91,6.63Z" fill="#bfddeb" style="mix-blend-mode:multiply"/><path d="M975.83,842.85a.57.57,0,0,0-.32.1L847.31,921a.7.7,0,0,0-.24.93.64.64,0,0,0,.88.25l128.21-78.09a.7.7,0,0,0,.23-.93A.65.65,0,0,0,975.83,842.85Z" fill="#bfddeb" style="mix-blend-mode:multiply"/><path d="M978.26,848a5.27,5.27,0,0,0,1.77-7,4.71,4.71,0,0,0-6.61-1.87,5.27,5.27,0,0,0-1.78,7A4.71,4.71,0,0,0,978.26,848Z" fill="#bfddeb" style="mix-blend-mode:multiply"/><path d="M850.05,926a4.7,4.7,0,0,1-6.61-1.87,5.25,5.25,0,0,1,1.77-7,4.71,4.71,0,0,1,6.61,1.87A5.27,5.27,0,0,1,850.05,926Z" fill="#bfddeb" style="mix-blend-mode:multiply"/><path d="M1104.07,608.6a.64.64,0,0,0-.56.34.7.7,0,0,0,.24.93L1232,688a.62.62,0,0,0,.88-.25.68.68,0,0,0-.23-.92l-128.24-78.09A.62.62,0,0,0,1104.07,608.6Z" fill="#bfddeb" style="mix-blend-mode:multiply"/><path d="M1106.49,604.86a4.71,4.71,0,0,0-6.61,1.87,5.26,5.26,0,0,0,1.77,7,4.7,4.7,0,0,0,6.61-1.87A5.26,5.26,0,0,0,1106.49,604.86Z" fill="#bfddeb" style="mix-blend-mode:multiply"/><path d="M1234.73,682.94a5.28,5.28,0,0,1,1.77,7,4.7,4.7,0,0,1-6.61,1.86,5.24,5.24,0,0,1-1.77-7A4.71,4.71,0,0,1,1234.73,682.94Z" fill="#bfddeb" style="mix-blend-mode:multiply"/><path d="M1232.31,686.69a.66.66,0,0,0-.65.67V843.53a.65.65,0,1,0,1.29,0V687.36A.66.66,0,0,0,1232.31,686.69Z" fill="#bfddeb" style="mix-blend-mode:multiply"/><path d="M1237.15,687.36a4.85,4.85,0,1,0-4.84,5.11A5,5,0,0,0,1237.15,687.36Z" fill="#bfddeb" style="mix-blend-mode:multiply"/><path d="M1237.14,843.53a4.85,4.85,0,1,1-4.84-5.1A5,5,0,0,1,1237.14,843.53Z" fill="#bfddeb" style="mix-blend-mode:multiply"/><path d="M1232.28,842.85a.55.55,0,0,0-.32.1L1103.75,921a.7.7,0,0,0-.24.93.64.64,0,0,0,.88.25l128.21-78.09a.71.71,0,0,0,.24-.93A.66.66,0,0,0,1232.28,842.85Z" fill="#bfddeb" style="mix-blend-mode:multiply"/><path d="M1234.7,848a5.26,5.26,0,0,0,1.77-7,4.71,4.71,0,0,0-6.61-1.87,5.26,5.26,0,0,0-1.77,7A4.7,4.7,0,0,0,1234.7,848Z" fill="#bfddeb" style="mix-blend-mode:multiply"/><path d="M1106.49,926a4.71,4.71,0,0,1-6.61-1.87,5.26,5.26,0,0,1,1.77-7,4.71,4.71,0,0,1,6.61,1.87A5.25,5.25,0,0,1,1106.49,926Z" fill="#bfddeb" style="mix-blend-mode:multiply"/><path d="M975.83,842.85a.65.65,0,0,0-.55.34.69.69,0,0,0,.23.93l128.24,78.09a.64.64,0,0,0,.88-.25.7.7,0,0,0-.24-.93L976.16,843A.6.6,0,0,0,975.83,842.85Z" fill="#bfddeb" style="mix-blend-mode:multiply"/><path d="M1101.65,926a4.7,4.7,0,0,0,6.61-1.87,5.26,5.26,0,0,0-1.77-7,4.71,4.71,0,0,0-6.61,1.87A5.26,5.26,0,0,0,1101.65,926Z" fill="#bfddeb" style="mix-blend-mode:multiply"/><path d="M973.42,848a5.26,5.26,0,0,1-1.78-7,4.72,4.72,0,0,1,6.62-1.87,5.28,5.28,0,0,1,1.77,7A4.7,4.7,0,0,1,973.42,848Z" fill="#bfddeb" style="mix-blend-mode:multiply"/><path d="M1232.28,686.69a.66.66,0,0,0-.65.67V843.53a.65.65,0,1,0,1.29,0V687.36A.66.66,0,0,0,1232.28,686.69Z" fill="#bfddeb" style="mix-blend-mode:multiply"/><path d="M1237.12,687.36a4.85,4.85,0,1,0-4.84,5.11A5,5,0,0,0,1237.12,687.36Z" fill="#bfddeb" style="mix-blend-mode:multiply"/><path d="M1237.12,843.53a4.85,4.85,0,1,1-4.84-5.1A5,5,0,0,1,1237.12,843.53Z" fill="#bfddeb" style="mix-blend-mode:multiply"/><path d="M1360.51,608.6a.62.62,0,0,0-.32.09L1232,686.78a.69.69,0,0,0-.24.92.62.62,0,0,0,.88.25l128.24-78.08a.71.71,0,0,0,.23-.93A.63.63,0,0,0,1360.51,608.6Z" fill="#bfddeb" style="mix-blend-mode:multiply"/><path d="M1229.86,682.94a5.26,5.26,0,0,0-1.77,7,4.7,4.7,0,0,0,6.61,1.86,5.25,5.25,0,0,0,1.77-7A4.72,4.72,0,0,0,1229.86,682.94Z" fill="#bfddeb" style="mix-blend-mode:multiply"/><path d="M1358.09,604.86a4.72,4.72,0,0,1,6.62,1.87,5.26,5.26,0,0,1-1.78,7,4.71,4.71,0,0,1-6.61-1.87A5.27,5.27,0,0,1,1358.09,604.86Z" fill="#bfddeb" style="mix-blend-mode:multiply"/><path d="M1360.51,608.6a.63.63,0,0,0-.55.34.7.7,0,0,0,.23.93L1488.43,688a.62.62,0,0,0,.88-.25.7.7,0,0,0-.24-.92l-128.23-78.09A.68.68,0,0,0,1360.51,608.6Z" fill="#bfddeb" style="mix-blend-mode:multiply"/><path d="M1362.93,604.86a4.71,4.71,0,0,0-6.61,1.87,5.27,5.27,0,0,0,1.77,7,4.72,4.72,0,0,0,6.62-1.87A5.26,5.26,0,0,0,1362.93,604.86Z" fill="#bfddeb" style="mix-blend-mode:multiply"/><path d="M1491.17,682.94a5.27,5.27,0,0,1,1.77,7,4.7,4.7,0,0,1-6.61,1.86,5.25,5.25,0,0,1-1.77-7A4.71,4.71,0,0,1,1491.17,682.94Z" fill="#bfddeb" style="mix-blend-mode:multiply"/><path d="M1488.75,686.69a.66.66,0,0,0-.65.67V843.53a.65.65,0,1,0,1.29,0V687.36A.66.66,0,0,0,1488.75,686.69Z" fill="#bfddeb" style="mix-blend-mode:multiply"/><path d="M1493.59,687.36a4.85,4.85,0,1,0-4.84,5.11A5,5,0,0,0,1493.59,687.36Z" fill="#bfddeb" style="mix-blend-mode:multiply"/><path d="M1493.59,843.53a4.85,4.85,0,1,1-4.84-5.1A5,5,0,0,1,1493.59,843.53Z" fill="#bfddeb" style="mix-blend-mode:multiply"/><path d="M1488.72,842.85a.55.55,0,0,0-.32.1L1360.19,921a.7.7,0,0,0-.23.93.64.64,0,0,0,.88.25L1489,844.12a.7.7,0,0,0,.24-.93A.66.66,0,0,0,1488.72,842.85Z" fill="#bfddeb" style="mix-blend-mode:multiply"/><path d="M1491.14,848a5.25,5.25,0,0,0,1.77-7,4.7,4.7,0,0,0-6.61-1.87,5.28,5.28,0,0,0-1.77,7A4.7,4.7,0,0,0,1491.14,848Z" fill="#bfddeb" style="mix-blend-mode:multiply"/><path d="M1362.93,926a4.71,4.71,0,0,1-6.61-1.87,5.27,5.27,0,0,1,1.77-7,4.72,4.72,0,0,1,6.62,1.87A5.26,5.26,0,0,1,1362.93,926Z" fill="#bfddeb" style="mix-blend-mode:multiply"/><path d="M1232.28,842.85a.66.66,0,0,0-.56.34.7.7,0,0,0,.24.93l128.23,78.09a.64.64,0,0,0,.88-.25.71.71,0,0,0-.23-.93L1232.6,843A.55.55,0,0,0,1232.28,842.85Z" fill="#bfddeb" style="mix-blend-mode:multiply"/><path d="M1358.09,926a4.72,4.72,0,0,0,6.62-1.87,5.26,5.26,0,0,0-1.78-7,4.71,4.71,0,0,0-6.61,1.87A5.27,5.27,0,0,0,1358.09,926Z" fill="#bfddeb" style="mix-blend-mode:multiply"/><path d="M1229.86,848a5.24,5.24,0,0,1-1.77-7,4.7,4.7,0,0,1,6.61-1.87,5.27,5.27,0,0,1,1.77,7A4.7,4.7,0,0,1,1229.86,848Z" fill="#bfddeb" style="mix-blend-mode:multiply"/><path d="M1488.72,686.69a.66.66,0,0,0-.64.67V843.53a.65.65,0,1,0,1.29,0V687.36A.66.66,0,0,0,1488.72,686.69Z" fill="#bfddeb" style="mix-blend-mode:multiply"/><path d="M1493.56,687.36a4.85,4.85,0,1,0-4.84,5.11A5,5,0,0,0,1493.56,687.36Z" fill="#bfddeb" style="mix-blend-mode:multiply"/><path d="M1493.56,843.53a4.85,4.85,0,1,1-4.84-5.1A5,5,0,0,1,1493.56,843.53Z" fill="#bfddeb" style="mix-blend-mode:multiply"/><path d="M1617,608.6a.62.62,0,0,0-.32.09L1488.4,686.78a.7.7,0,0,0-.24.92.62.62,0,0,0,.88.25l128.24-78.08a.71.71,0,0,0,.24-.93A.64.64,0,0,0,1617,608.6Z" fill="#bfddeb" style="mix-blend-mode:multiply"/><path d="M1486.3,682.94a5.27,5.27,0,0,0-1.77,7,4.7,4.7,0,0,0,6.61,1.86,5.24,5.24,0,0,0,1.77-7A4.71,4.71,0,0,0,1486.3,682.94Z" fill="#bfddeb" style="mix-blend-mode:multiply"/><path d="M1614.54,604.86a4.71,4.71,0,0,1,6.61,1.87,5.27,5.27,0,0,1-1.77,7,4.7,4.7,0,0,1-6.61-1.87A5.25,5.25,0,0,1,1614.54,604.86Z" fill="#bfddeb" style="mix-blend-mode:multiply"/><path d="M1617,608.6a.64.64,0,0,0-.56.34.7.7,0,0,0,.24.93L1744.87,688a.62.62,0,0,0,.88-.25.69.69,0,0,0-.24-.92l-128.23-78.09A.62.62,0,0,0,1617,608.6Z" fill="#bfddeb" style="mix-blend-mode:multiply"/><path d="M1619.38,604.86a4.7,4.7,0,0,0-6.61,1.87,5.25,5.25,0,0,0,1.77,7,4.71,4.71,0,0,0,6.61-1.87A5.27,5.27,0,0,0,1619.38,604.86Z" fill="#bfddeb" style="mix-blend-mode:multiply"/><path d="M1747.61,682.94a5.26,5.26,0,0,1,1.77,7,4.7,4.7,0,0,1-6.61,1.86,5.26,5.26,0,0,1-1.77-7A4.72,4.72,0,0,1,1747.61,682.94Z" fill="#bfddeb" style="mix-blend-mode:multiply"/><path d="M1745.19,686.69a.66.66,0,0,0-.64.67V843.53a.65.65,0,1,0,1.29,0V687.36A.66.66,0,0,0,1745.19,686.69Z" fill="#bfddeb" style="mix-blend-mode:multiply"/><path d="M1750,687.36a4.85,4.85,0,1,0-4.84,5.11A5,5,0,0,0,1750,687.36Z" fill="#bfddeb" style="mix-blend-mode:multiply"/><path d="M1750,843.53a4.85,4.85,0,1,1-4.84-5.1A5,5,0,0,1,1750,843.53Z" fill="#bfddeb" style="mix-blend-mode:multiply"/><path d="M1745.17,842.85a.6.6,0,0,0-.33.1L1616.64,921a.7.7,0,0,0-.24.93.64.64,0,0,0,.88.25l128.21-78.09a.69.69,0,0,0,.23-.93A.65.65,0,0,0,1745.17,842.85Z" fill="#bfddeb" style="mix-blend-mode:multiply"/><path d="M1747.59,848a5.27,5.27,0,0,0,1.77-7,4.71,4.71,0,0,0-6.61-1.87,5.27,5.27,0,0,0-1.78,7A4.71,4.71,0,0,0,1747.59,848Z" fill="#bfddeb" style="mix-blend-mode:multiply"/><path d="M1619.38,926a4.7,4.7,0,0,1-6.61-1.87,5.25,5.25,0,0,1,1.77-7,4.71,4.71,0,0,1,6.61,1.87A5.27,5.27,0,0,1,1619.38,926Z" fill="#bfddeb" style="mix-blend-mode:multiply"/><path d="M1488.72,842.85a.66.66,0,0,0-.56.34.71.71,0,0,0,.24.93l128.24,78.09a.64.64,0,0,0,.88-.25.71.71,0,0,0-.24-.93L1489,843A.55.55,0,0,0,1488.72,842.85Z" fill="#bfddeb" style="mix-blend-mode:multiply"/><path d="M1614.54,926a4.71,4.71,0,0,0,6.61-1.87,5.27,5.27,0,0,0-1.77-7,4.7,4.7,0,0,0-6.61,1.87A5.25,5.25,0,0,0,1614.54,926Z" fill="#bfddeb" style="mix-blend-mode:multiply"/><path d="M1486.3,848a5.25,5.25,0,0,1-1.77-7,4.71,4.71,0,0,1,6.61-1.87,5.26,5.26,0,0,1,1.77,7A4.7,4.7,0,0,1,1486.3,848Z" fill="#bfddeb" style="mix-blend-mode:multiply"/><path d="M1232.28,374.34a.66.66,0,0,0-.56.34.7.7,0,0,0,.24.93l128.23,78.09a.63.63,0,0,0,.88-.25.71.71,0,0,0-.23-.93L1232.6,374.44A.55.55,0,0,0,1232.28,374.34Z" fill="#bfddeb" style="mix-blend-mode:multiply"/><path d="M1234.7,370.6a4.71,4.71,0,0,0-6.61,1.87,5.24,5.24,0,0,0,1.77,7,4.7,4.7,0,0,0,6.61-1.86A5.27,5.27,0,0,0,1234.7,370.6Z" fill="#bfddeb" style="mix-blend-mode:multiply"/><path d="M1362.93,448.69a5.26,5.26,0,0,1,1.78,7,4.72,4.72,0,0,1-6.62,1.87,5.27,5.27,0,0,1-1.77-7A4.71,4.71,0,0,1,1362.93,448.69Z" fill="#bfddeb" style="mix-blend-mode:multiply"/><path d="M1360.51,452.43a.67.67,0,0,0-.64.68V609.28a.65.65,0,1,0,1.29,0V453.11A.67.67,0,0,0,1360.51,452.43Z" fill="#bfddeb" style="mix-blend-mode:multiply"/><path d="M1365.35,453.11a4.85,4.85,0,1,0-4.84,5.1A5,5,0,0,0,1365.35,453.11Z" fill="#bfddeb" style="mix-blend-mode:multiply"/><path d="M1365.35,609.28a4.85,4.85,0,1,1-4.84-5.1A5,5,0,0,1,1365.35,609.28Z" fill="#bfddeb" style="mix-blend-mode:multiply"/><path d="M1360.49,608.6a.68.68,0,0,0-.33.09L1232,686.78a.69.69,0,0,0-.24.92.62.62,0,0,0,.88.25l128.21-78.08a.7.7,0,0,0,.23-.93A.61.61,0,0,0,1360.49,608.6Z" fill="#bfddeb" style="mix-blend-mode:multiply"/><path d="M1362.91,613.7a5.27,5.27,0,0,0,1.77-7,4.71,4.71,0,0,0-6.61-1.87,5.25,5.25,0,0,0-1.77,7A4.7,4.7,0,0,0,1362.91,613.7Z" fill="#bfddeb" style="mix-blend-mode:multiply"/><path d="M1234.7,691.78a4.7,4.7,0,0,1-6.61-1.86,5.26,5.26,0,0,1,1.77-7,4.72,4.72,0,0,1,6.61,1.87A5.25,5.25,0,0,1,1234.7,691.78Z" fill="#bfddeb" style="mix-blend-mode:multiply"/><path d="M1104,608.6a.61.61,0,0,0-.55.34.7.7,0,0,0,.23.93L1232,688a.62.62,0,0,0,.88-.25.7.7,0,0,0-.24-.92l-128.23-78.09A.68.68,0,0,0,1104,608.6Z" fill="#bfddeb" style="mix-blend-mode:multiply"/><path d="M1229.86,691.78a4.7,4.7,0,0,0,6.61-1.86,5.27,5.27,0,0,0-1.77-7,4.71,4.71,0,0,0-6.61,1.87A5.24,5.24,0,0,0,1229.86,691.78Z" fill="#bfddeb" style="mix-blend-mode:multiply"/><path d="M1101.62,613.7a5.27,5.27,0,0,1-1.77-7,4.71,4.71,0,0,1,6.61-1.87,5.25,5.25,0,0,1,1.77,7A4.7,4.7,0,0,1,1101.62,613.7Z" fill="#bfddeb" style="mix-blend-mode:multiply"/><path d="M1360.49,452.43a.67.67,0,0,0-.65.68V609.28a.65.65,0,1,0,1.29,0V453.11A.67.67,0,0,0,1360.49,452.43Z" fill="#bfddeb" style="mix-blend-mode:multiply"/><path d="M1365.33,453.11a4.85,4.85,0,1,0-4.84,5.1A5,5,0,0,0,1365.33,453.11Z" fill="#bfddeb" style="mix-blend-mode:multiply"/><path d="M1365.33,609.28a4.85,4.85,0,1,1-4.84-5.1A5,5,0,0,1,1365.33,609.28Z" fill="#bfddeb" style="mix-blend-mode:multiply"/><path d="M1488.72,374.34a.55.55,0,0,0-.32.1l-128.24,78.08a.71.71,0,0,0-.23.93.63.63,0,0,0,.88.25L1489,375.61a.7.7,0,0,0,.24-.93A.66.66,0,0,0,1488.72,374.34Z" fill="#bfddeb" style="mix-blend-mode:multiply"/><path d="M1358.07,448.69a5.25,5.25,0,0,0-1.77,7,4.7,4.7,0,0,0,6.61,1.87,5.27,5.27,0,0,0,1.77-7A4.71,4.71,0,0,0,1358.07,448.69Z" fill="#bfddeb" style="mix-blend-mode:multiply"/><path d="M1486.3,370.6a4.71,4.71,0,0,1,6.61,1.87,5.24,5.24,0,0,1-1.77,7,4.7,4.7,0,0,1-6.61-1.86A5.28,5.28,0,0,1,1486.3,370.6Z" fill="#bfddeb" style="mix-blend-mode:multiply"/><path d="M1488.72,374.34a.66.66,0,0,0-.56.34.71.71,0,0,0,.24.93l128.24,78.09a.63.63,0,0,0,.88-.25.71.71,0,0,0-.24-.93L1489,374.44A.55.55,0,0,0,1488.72,374.34Z" fill="#bfddeb" style="mix-blend-mode:multiply"/><path d="M1491.14,370.6a4.72,4.72,0,0,0-6.61,1.87,5.25,5.25,0,0,0,1.77,7,4.7,4.7,0,0,0,6.61-1.86A5.26,5.26,0,0,0,1491.14,370.6Z" fill="#bfddeb" style="mix-blend-mode:multiply"/><path d="M1619.38,448.69a5.27,5.27,0,0,1,1.77,7,4.71,4.71,0,0,1-6.61,1.87,5.25,5.25,0,0,1-1.77-7A4.7,4.7,0,0,1,1619.38,448.69Z" fill="#bfddeb" style="mix-blend-mode:multiply"/><path d="M1617,452.43a.67.67,0,0,0-.65.68V609.28a.65.65,0,1,0,1.29,0V453.11A.67.67,0,0,0,1617,452.43Z" fill="#bfddeb" style="mix-blend-mode:multiply"/><path d="M1621.8,453.11a4.85,4.85,0,1,0-4.84,5.1A5,5,0,0,0,1621.8,453.11Z" fill="#bfddeb" style="mix-blend-mode:multiply"/><path d="M1621.8,609.28a4.85,4.85,0,1,1-4.84-5.1A5,5,0,0,1,1621.8,609.28Z" fill="#bfddeb" style="mix-blend-mode:multiply"/><path d="M1616.93,608.6a.62.62,0,0,0-.32.09L1488.4,686.78a.7.7,0,0,0-.24.92.62.62,0,0,0,.88.25l128.21-78.08a.71.71,0,0,0,.24-.93A.64.64,0,0,0,1616.93,608.6Z" fill="#bfddeb" style="mix-blend-mode:multiply"/><path d="M1619.35,613.7a5.26,5.26,0,0,0,1.77-7,4.71,4.71,0,0,0-6.61-1.87,5.26,5.26,0,0,0-1.77,7A4.71,4.71,0,0,0,1619.35,613.7Z" fill="#bfddeb" style="mix-blend-mode:multiply"/><path d="M1491.14,691.78a4.7,4.7,0,0,1-6.61-1.86,5.27,5.27,0,0,1,1.77-7,4.71,4.71,0,0,1,6.61,1.87A5.24,5.24,0,0,1,1491.14,691.78Z" fill="#bfddeb" style="mix-blend-mode:multiply"/><path d="M1360.49,608.6a.64.64,0,0,0-.56.34.71.71,0,0,0,.23.93L1488.4,688a.62.62,0,0,0,.88-.25.69.69,0,0,0-.24-.92l-128.23-78.09A.62.62,0,0,0,1360.49,608.6Z" fill="#bfddeb" style="mix-blend-mode:multiply"/><path d="M1486.3,691.78a4.7,4.7,0,0,0,6.61-1.86,5.26,5.26,0,0,0-1.77-7,4.72,4.72,0,0,0-6.61,1.87A5.26,5.26,0,0,0,1486.3,691.78Z" fill="#bfddeb" style="mix-blend-mode:multiply"/><path d="M1358.07,613.7a5.25,5.25,0,0,1-1.77-7,4.7,4.7,0,0,1,6.61-1.87,5.27,5.27,0,0,1,1.77,7A4.71,4.71,0,0,1,1358.07,613.7Z" fill="#bfddeb" style="mix-blend-mode:multiply"/><path d="M1232.31,218.17a.67.67,0,0,0-.65.68V375a.65.65,0,1,0,1.29,0V218.85A.67.67,0,0,0,1232.31,218.17Z" fill="#bfddeb" style="mix-blend-mode:multiply"/><path d="M1237.15,218.85a4.85,4.85,0,1,0-4.84,5.11A5,5,0,0,0,1237.15,218.85Z" fill="#bfddeb" style="mix-blend-mode:multiply"/><path d="M1237.14,375a4.85,4.85,0,1,1-4.84-5.1A5,5,0,0,1,1237.14,375Z" fill="#bfddeb" style="mix-blend-mode:multiply"/><path d="M1232.28,218.17a.67.67,0,0,0-.65.68V375a.65.65,0,1,0,1.29,0V218.85A.67.67,0,0,0,1232.28,218.17Z" fill="#bfddeb" style="mix-blend-mode:multiply"/><path d="M1237.12,218.85a4.85,4.85,0,1,0-4.84,5.11A5,5,0,0,0,1237.12,218.85Z" fill="#bfddeb" style="mix-blend-mode:multiply"/><path d="M1237.12,375a4.85,4.85,0,1,1-4.84-5.1A5,5,0,0,1,1237.12,375Z" fill="#bfddeb" style="mix-blend-mode:multiply"/><path d="M1360.51,140.09a.62.62,0,0,0-.32.09L1232,218.27a.69.69,0,0,0-.24.92.62.62,0,0,0,.88.25l128.24-78.08a.71.71,0,0,0,.23-.93A.63.63,0,0,0,1360.51,140.09Z" fill="#bfddeb" style="mix-blend-mode:multiply"/><path d="M1229.86,214.43a5.26,5.26,0,0,0-1.77,7,4.71,4.71,0,0,0,6.61,1.87,5.27,5.27,0,0,0,1.77-7A4.72,4.72,0,0,0,1229.86,214.43Z" fill="#bfddeb" style="mix-blend-mode:multiply"/><path d="M1358.09,136.35a4.72,4.72,0,0,1,6.62,1.87,5.26,5.26,0,0,1-1.78,7,4.71,4.71,0,0,1-6.61-1.87A5.27,5.27,0,0,1,1358.09,136.35Z" fill="#bfddeb" style="mix-blend-mode:multiply"/><path d="M1360.51,140.09a.63.63,0,0,0-.55.34.7.7,0,0,0,.23.93l128.24,78.08a.62.62,0,0,0,.88-.25.7.7,0,0,0-.24-.92l-128.23-78.09A.68.68,0,0,0,1360.51,140.09Z" fill="#bfddeb" style="mix-blend-mode:multiply"/><path d="M1362.93,136.35a4.71,4.71,0,0,0-6.61,1.87,5.27,5.27,0,0,0,1.77,7,4.72,4.72,0,0,0,6.62-1.87A5.26,5.26,0,0,0,1362.93,136.35Z" fill="#bfddeb" style="mix-blend-mode:multiply"/><path d="M1491.17,214.43a5.27,5.27,0,0,1,1.77,7,4.72,4.72,0,0,1-6.61,1.87,5.27,5.27,0,0,1-1.77-7A4.71,4.71,0,0,1,1491.17,214.43Z" fill="#bfddeb" style="mix-blend-mode:multiply"/><path d="M1488.75,218.17a.67.67,0,0,0-.65.68V375a.65.65,0,1,0,1.29,0V218.85A.67.67,0,0,0,1488.75,218.17Z" fill="#bfddeb" style="mix-blend-mode:multiply"/><path d="M1493.59,218.85a4.85,4.85,0,1,0-4.84,5.11A5,5,0,0,0,1493.59,218.85Z" fill="#bfddeb" style="mix-blend-mode:multiply"/><path d="M1493.59,375a4.85,4.85,0,1,1-4.84-5.1A5,5,0,0,1,1493.59,375Z" fill="#bfddeb" style="mix-blend-mode:multiply"/><path d="M1488.72,374.34a.55.55,0,0,0-.32.1l-128.21,78.08a.7.7,0,0,0-.23.93.63.63,0,0,0,.88.25L1489,375.61a.7.7,0,0,0,.24-.93A.66.66,0,0,0,1488.72,374.34Z" fill="#bfddeb" style="mix-blend-mode:multiply"/><path d="M1491.14,379.44a5.24,5.24,0,0,0,1.77-7,4.71,4.71,0,0,0-6.61-1.87,5.28,5.28,0,0,0-1.77,7A4.7,4.7,0,0,0,1491.14,379.44Z" fill="#bfddeb" style="mix-blend-mode:multiply"/><path d="M1362.93,457.53a4.71,4.71,0,0,1-6.61-1.87,5.27,5.27,0,0,1,1.77-7,4.72,4.72,0,0,1,6.62,1.87A5.26,5.26,0,0,1,1362.93,457.53Z" fill="#bfddeb" style="mix-blend-mode:multiply"/><path d="M1232.28,374.34a.66.66,0,0,0-.56.34.7.7,0,0,0,.24.93l128.23,78.09a.63.63,0,0,0,.88-.25.71.71,0,0,0-.23-.93L1232.6,374.44A.55.55,0,0,0,1232.28,374.34Z" fill="#bfddeb" style="mix-blend-mode:multiply"/><path d="M1358.09,457.53a4.72,4.72,0,0,0,6.62-1.87,5.26,5.26,0,0,0-1.78-7,4.71,4.71,0,0,0-6.61,1.87A5.27,5.27,0,0,0,1358.09,457.53Z" fill="#bfddeb" style="mix-blend-mode:multiply"/><path d="M1229.86,379.44a5.24,5.24,0,0,1-1.77-7,4.71,4.71,0,0,1,6.61-1.87,5.27,5.27,0,0,1,1.77,7A4.7,4.7,0,0,1,1229.86,379.44Z" fill="#bfddeb" style="mix-blend-mode:multiply"/><path d="M1488.72,218.17a.67.67,0,0,0-.64.68V375a.65.65,0,1,0,1.29,0V218.85A.67.67,0,0,0,1488.72,218.17Z" fill="#bfddeb" style="mix-blend-mode:multiply"/><path d="M1493.56,218.85a4.85,4.85,0,1,0-4.84,5.11A5,5,0,0,0,1493.56,218.85Z" fill="#bfddeb" style="mix-blend-mode:multiply"/><path d="M1493.56,375a4.85,4.85,0,1,1-4.84-5.1A5,5,0,0,1,1493.56,375Z" fill="#bfddeb" style="mix-blend-mode:multiply"/><path d="M1617,140.09a.62.62,0,0,0-.32.09L1488.4,218.27a.7.7,0,0,0-.24.92.62.62,0,0,0,.88.25l128.24-78.08a.71.71,0,0,0,.24-.93A.64.64,0,0,0,1617,140.09Z" fill="#bfddeb" style="mix-blend-mode:multiply"/><path d="M1486.3,214.43a5.27,5.27,0,0,0-1.77,7,4.72,4.72,0,0,0,6.61,1.87,5.26,5.26,0,0,0,1.77-7A4.71,4.71,0,0,0,1486.3,214.43Z" fill="#bfddeb" style="mix-blend-mode:multiply"/><path d="M1614.54,136.35a4.71,4.71,0,0,1,6.61,1.87,5.27,5.27,0,0,1-1.77,7,4.7,4.7,0,0,1-6.61-1.87A5.25,5.25,0,0,1,1614.54,136.35Z" fill="#bfddeb" style="mix-blend-mode:multiply"/><path d="M1617,140.09a.64.64,0,0,0-.56.34.7.7,0,0,0,.24.93l128.23,78.08a.62.62,0,0,0,.88-.25.69.69,0,0,0-.24-.92l-128.23-78.09A.62.62,0,0,0,1617,140.09Z" fill="#bfddeb" style="mix-blend-mode:multiply"/><path d="M1619.38,136.35a4.7,4.7,0,0,0-6.61,1.87,5.25,5.25,0,0,0,1.77,7,4.71,4.71,0,0,0,6.61-1.87A5.27,5.27,0,0,0,1619.38,136.35Z" fill="#bfddeb" style="mix-blend-mode:multiply"/><path d="M1747.61,214.43a5.26,5.26,0,0,1,1.77,7,4.71,4.71,0,0,1-6.61,1.87,5.28,5.28,0,0,1-1.77-7A4.72,4.72,0,0,1,1747.61,214.43Z" fill="#bfddeb" style="mix-blend-mode:multiply"/><path d="M1745.19,218.17a.67.67,0,0,0-.64.68V375a.65.65,0,1,0,1.29,0V218.85A.67.67,0,0,0,1745.19,218.17Z" fill="#bfddeb" style="mix-blend-mode:multiply"/><path d="M1750,218.85a4.85,4.85,0,1,0-4.84,5.11A5,5,0,0,0,1750,218.85Z" fill="#bfddeb" style="mix-blend-mode:multiply"/><path d="M1750,375a4.85,4.85,0,1,1-4.84-5.1A5,5,0,0,1,1750,375Z" fill="#bfddeb" style="mix-blend-mode:multiply"/><path d="M1745.17,374.34a.6.6,0,0,0-.33.1l-128.2,78.08a.7.7,0,0,0-.24.93.63.63,0,0,0,.88.25l128.21-78.09a.69.69,0,0,0,.23-.93A.65.65,0,0,0,1745.17,374.34Z" fill="#bfddeb" style="mix-blend-mode:multiply"/><path d="M1747.59,379.44a5.26,5.26,0,0,0,1.77-7,4.72,4.72,0,0,0-6.61-1.87,5.27,5.27,0,0,0-1.78,7A4.71,4.71,0,0,0,1747.59,379.44Z" fill="#bfddeb" style="mix-blend-mode:multiply"/><path d="M1619.38,457.53a4.7,4.7,0,0,1-6.61-1.87,5.25,5.25,0,0,1,1.77-7,4.71,4.71,0,0,1,6.61,1.87A5.27,5.27,0,0,1,1619.38,457.53Z" fill="#bfddeb" style="mix-blend-mode:multiply"/><path d="M1488.72,374.34a.66.66,0,0,0-.56.34.71.71,0,0,0,.24.93l128.24,78.09a.63.63,0,0,0,.88-.25.71.71,0,0,0-.24-.93L1489,374.44A.55.55,0,0,0,1488.72,374.34Z" fill="#bfddeb" style="mix-blend-mode:multiply"/><path d="M1614.54,457.53a4.71,4.71,0,0,0,6.61-1.87,5.27,5.27,0,0,0-1.77-7,4.7,4.7,0,0,0-6.61,1.87A5.25,5.25,0,0,0,1614.54,457.53Z" fill="#bfddeb" style="mix-blend-mode:multiply"/><path d="M1486.3,379.44a5.25,5.25,0,0,1-1.77-7,4.72,4.72,0,0,1,6.61-1.87,5.26,5.26,0,0,1,1.77,7A4.7,4.7,0,0,1,1486.3,379.44Z" fill="#bfddeb" style="mix-blend-mode:multiply"/><path d="M1361.16,0V140.77a.65.65,0,1,1-1.29,0V0Z" fill="#bfddeb" style="mix-blend-mode:multiply"/><path d="M1365.35,140.77a4.85,4.85,0,1,1-4.84-5.1A5,5,0,0,1,1365.35,140.77Z" fill="#bfddeb" style="mix-blend-mode:multiply"/><path d="M1360.49,140.09a.68.68,0,0,0-.33.09L1232,218.27a.69.69,0,0,0-.24.92.62.62,0,0,0,.88.25l128.21-78.08a.7.7,0,0,0,.23-.93A.61.61,0,0,0,1360.49,140.09Z" fill="#bfddeb" style="mix-blend-mode:multiply"/><path d="M1362.91,145.19a5.27,5.27,0,0,0,1.77-7,4.71,4.71,0,0,0-6.61-1.87,5.25,5.25,0,0,0-1.77,7A4.7,4.7,0,0,0,1362.91,145.19Z" fill="#bfddeb" style="mix-blend-mode:multiply"/><path d="M1234.7,223.27a4.7,4.7,0,0,1-6.61-1.86,5.26,5.26,0,0,1,1.77-7,4.72,4.72,0,0,1,6.61,1.87A5.25,5.25,0,0,1,1234.7,223.27Z" fill="#bfddeb" style="mix-blend-mode:multiply"/><path d="M1361.13,0V140.77a.65.65,0,1,1-1.29,0V0Z" fill="#bfddeb" style="mix-blend-mode:multiply"/><path d="M1365.33,140.77a4.85,4.85,0,1,1-4.84-5.1A5,5,0,0,1,1365.33,140.77Z" fill="#bfddeb" style="mix-blend-mode:multiply"/><path d="M1617.6,0V140.77a.65.65,0,1,1-1.29,0V0Z" fill="#bfddeb" style="mix-blend-mode:multiply"/><path d="M1621.8,140.77a4.85,4.85,0,1,1-4.84-5.1A5,5,0,0,1,1621.8,140.77Z" fill="#bfddeb" style="mix-blend-mode:multiply"/><path d="M1616.93,140.09a.62.62,0,0,0-.32.09L1488.4,218.27a.7.7,0,0,0-.24.92.62.62,0,0,0,.88.25l128.21-78.08a.71.71,0,0,0,.24-.93A.64.64,0,0,0,1616.93,140.09Z" fill="#bfddeb" style="mix-blend-mode:multiply"/><path d="M1619.35,145.19a5.26,5.26,0,0,0,1.77-7,4.71,4.71,0,0,0-6.61-1.87,5.26,5.26,0,0,0-1.77,7A4.71,4.71,0,0,0,1619.35,145.19Z" fill="#bfddeb" style="mix-blend-mode:multiply"/><path d="M1491.14,223.27a4.7,4.7,0,0,1-6.61-1.86,5.27,5.27,0,0,1,1.77-7,4.71,4.71,0,0,1,6.61,1.87A5.24,5.24,0,0,1,1491.14,223.27Z" fill="#bfddeb" style="mix-blend-mode:multiply"/><path d="M1360.49,140.09a.64.64,0,0,0-.56.34.71.71,0,0,0,.23.93l128.24,78.08a.62.62,0,0,0,.88-.25.69.69,0,0,0-.24-.92l-128.23-78.09A.62.62,0,0,0,1360.49,140.09Z" fill="#bfddeb" style="mix-blend-mode:multiply"/><path d="M1486.3,223.28a4.71,4.71,0,0,0,6.61-1.87,5.26,5.26,0,0,0-1.77-7,4.72,4.72,0,0,0-6.61,1.87A5.28,5.28,0,0,0,1486.3,223.28Z" fill="#bfddeb" style="mix-blend-mode:multiply"/><path d="M1358.07,145.19a5.25,5.25,0,0,1-1.77-7,4.7,4.7,0,0,1,6.61-1.87,5.27,5.27,0,0,1,1.77,7A4.71,4.71,0,0,1,1358.07,145.19Z" fill="#bfddeb" style="mix-blend-mode:multiply"/><path d="M1906.56,0h2.58L1807.55,61.86a.63.63,0,0,1-.88-.25.71.71,0,0,1,.24-.93Z" fill="#bfddeb" style="mix-blend-mode:multiply"/><path d="M1920,281.43l-113.12-68.88a.68.68,0,0,1-.23-.92.63.63,0,0,1,.55-.34.68.68,0,0,1,.33.09L1920,279.87Z" fill="#bfddeb" style="mix-blend-mode:multiply"/><path d="M1807.21,60.59a.67.67,0,0,0-.65.68V212a.65.65,0,1,0,1.29,0V61.27A.67.67,0,0,0,1807.21,60.59Z" fill="#bfddeb" style="mix-blend-mode:multiply"/><path d="M1906.54,0h2.58L1807.55,61.86a.63.63,0,0,1-.88-.25.71.71,0,0,1,.24-.93Z" fill="#bfddeb" style="mix-blend-mode:multiply"/><path d="M1807.23,60.59a.67.67,0,0,0-.64.68V212a.64.64,0,1,0,1.28,0V61.27A.66.66,0,0,0,1807.23,60.59Z" fill="#bfddeb" style="mix-blend-mode:multiply"/><path d="M1807.23,211.29a.62.62,0,0,0-.32.09l-123.74,75.35a.69.69,0,0,0-.24.92.62.62,0,0,0,.88.25l123.74-75.35a.69.69,0,0,0,.24-.92A.64.64,0,0,0,1807.23,211.29Z" fill="#bfddeb" style="mix-blend-mode:multiply"/><path d="M1920,445.48,1807.55,514a.64.64,0,0,1-.88-.25.71.71,0,0,1,.24-.93L1920,443.91Z" fill="#bfddeb" style="mix-blend-mode:multiply"/><path d="M1683.49,437.33a.64.64,0,0,0-.56.34.7.7,0,0,0,.24.93L1806.91,514a.64.64,0,0,0,.88-.25.7.7,0,0,0-.24-.93l-123.74-75.35A.62.62,0,0,0,1683.49,437.33Z" fill="#bfddeb" style="mix-blend-mode:multiply"/><path d="M1683.49,286.64a.66.66,0,0,0-.64.67V438a.64.64,0,1,0,1.28,0V287.31A.66.66,0,0,0,1683.49,286.64Z" fill="#bfddeb" style="mix-blend-mode:multiply"/><path d="M1807.23,211.29a.62.62,0,0,0-.32.09l-123.72,75.35a.69.69,0,0,0-.23.92.62.62,0,0,0,.88.25l123.71-75.35a.69.69,0,0,0,.24-.92A.64.64,0,0,0,1807.23,211.29Z" fill="#bfddeb" style="mix-blend-mode:multiply"/><path d="M1920,281.42l-113.09-68.87a.7.7,0,0,1-.24-.92.64.64,0,0,1,.56-.34.62.62,0,0,1,.32.09L1920,279.85Z" fill="#bfddeb" style="mix-blend-mode:multiply"/><path d="M1683.52,286.64a.66.66,0,0,0-.65.67V438a.65.65,0,1,0,1.29,0V287.31A.66.66,0,0,0,1683.52,286.64Z" fill="#bfddeb" style="mix-blend-mode:multiply"/><path d="M1920,733.52l-113.12-68.88a.68.68,0,0,1-.23-.92.63.63,0,0,1,.55-.34.68.68,0,0,1,.33.09L1920,732Z" fill="#bfddeb" style="mix-blend-mode:multiply"/><path d="M1807.21,512.68a.66.66,0,0,0-.65.68v150.7a.65.65,0,1,0,1.29,0V513.36A.66.66,0,0,0,1807.21,512.68Z" fill="#bfddeb" style="mix-blend-mode:multiply"/><path d="M1920,445.46,1807.55,514a.64.64,0,0,1-.88-.25.71.71,0,0,1,.24-.93L1920,443.89Z" fill="#bfddeb" style="mix-blend-mode:multiply"/><path d="M1807.23,512.68a.66.66,0,0,0-.64.68v150.7a.64.64,0,1,0,1.28,0V513.36A.65.65,0,0,0,1807.23,512.68Z" fill="#bfddeb" style="mix-blend-mode:multiply"/><path d="M1807.23,663.38a.62.62,0,0,0-.32.09l-123.74,75.35a.69.69,0,0,0-.24.92.62.62,0,0,0,.88.25l123.74-75.35a.69.69,0,0,0,.24-.92A.64.64,0,0,0,1807.23,663.38Z" fill="#bfddeb" style="mix-blend-mode:multiply"/><path d="M1683.49,437.33a.64.64,0,0,0-.56.34.7.7,0,0,0,.24.93L1806.91,514a.64.64,0,0,0,.88-.25.7.7,0,0,0-.24-.93l-123.74-75.35A.62.62,0,0,0,1683.49,437.33Z" fill="#bfddeb" style="mix-blend-mode:multiply"/><path d="M1920,897.57,1807.55,966a.64.64,0,0,1-.88-.25.71.71,0,0,1,.24-.93L1920,896Z" fill="#bfddeb" style="mix-blend-mode:multiply"/><path d="M1683.49,889.42a.64.64,0,0,0-.56.34.7.7,0,0,0,.24.93L1806.91,966a.64.64,0,0,0,.88-.25.7.7,0,0,0-.24-.93l-123.74-75.35A.62.62,0,0,0,1683.49,889.42Z" fill="#bfddeb" style="mix-blend-mode:multiply"/><path d="M1683.49,738.72a.67.67,0,0,0-.64.68V890.1a.64.64,0,1,0,1.28,0V739.4A.67.67,0,0,0,1683.49,738.72Z" fill="#bfddeb" style="mix-blend-mode:multiply"/><path d="M1807.23,663.38a.62.62,0,0,0-.32.09l-123.72,75.35a.69.69,0,0,0-.23.92.62.62,0,0,0,.88.25l123.71-75.35a.69.69,0,0,0,.24-.92A.64.64,0,0,0,1807.23,663.38Z" fill="#bfddeb" style="mix-blend-mode:multiply"/><path d="M1920,733.51l-113.09-68.87a.7.7,0,0,1-.24-.92.64.64,0,0,1,.56-.34.62.62,0,0,1,.32.09L1920,731.94Z" fill="#bfddeb" style="mix-blend-mode:multiply"/><path d="M1683.52,738.72a.67.67,0,0,0-.65.68V890.1a.65.65,0,1,0,1.29,0V739.4A.67.67,0,0,0,1683.52,738.72Z" fill="#bfddeb" style="mix-blend-mode:multiply"/><path d="M1683.52,889.42a.68.68,0,0,0-.33.09l-123.74,75.35a.7.7,0,0,0-.23.93.64.64,0,0,0,.88.25l123.74-75.35a.7.7,0,0,0,.23-.93A.63.63,0,0,0,1683.52,889.42Z" fill="#bfddeb" style="mix-blend-mode:multiply"/><path d="M1806.56,1080V965.45a.65.65,0,1,1,1.29,0V1080Z" fill="#bfddeb" style="mix-blend-mode:multiply"/><path d="M1920,897.55,1807.55,966a.64.64,0,0,1-.88-.25.71.71,0,0,1,.24-.93L1920,896Z" fill="#bfddeb" style="mix-blend-mode:multiply"/><path d="M1806.59,1080V965.45a.64.64,0,1,1,1.28,0V1080Z" fill="#bfddeb" style="mix-blend-mode:multiply"/><path d="M1559.1,1080V965.45a.64.64,0,1,1,1.28,0V1080Z" fill="#bfddeb" style="mix-blend-mode:multiply"/><path d="M1683.49,889.42a.62.62,0,0,0-.32.09l-123.72,75.35a.7.7,0,0,0-.23.93.64.64,0,0,0,.88.25l123.71-75.35a.71.71,0,0,0,.24-.93A.64.64,0,0,0,1683.49,889.42Z" fill="#bfddeb" style="mix-blend-mode:multiply"/><path d="M1683.49,889.42a.64.64,0,0,0-.56.34.7.7,0,0,0,.24.93L1806.91,966a.64.64,0,0,0,.88-.25.7.7,0,0,0-.24-.93l-123.74-75.35A.62.62,0,0,0,1683.49,889.42Z" fill="#bfddeb" style="mix-blend-mode:multiply"/><path d="M1559.13,1080V965.45a.65.65,0,1,1,1.29,0V1080Z" fill="#bfddeb" style="mix-blend-mode:multiply"/><path d="M1920,44.51l-23.33,14.2a.62.62,0,0,1-.88-.24.7.7,0,0,1,.23-.93l24-14.6Z" fill="#bfddeb" style="mix-blend-mode:multiply"/><path d="M1898.76,62.55a4.71,4.71,0,0,1-6.61-1.87,5.27,5.27,0,0,1,1.77-7,4.7,4.7,0,0,1,6.61,1.86A5.26,5.26,0,0,1,1898.76,62.55Z" fill="#bfddeb" style="mix-blend-mode:multiply"/><path d="M1820.33,11.16a.63.63,0,0,0-.56.34.71.71,0,0,0,.23.93l76,46.28a.63.63,0,0,0,.88-.24.71.71,0,0,0-.23-.93l-76-46.29A.68.68,0,0,0,1820.33,11.16Z" fill="#bfddeb" style="mix-blend-mode:multiply"/><path d="M1893.92,62.55a4.7,4.7,0,0,0,6.61-1.87,5.25,5.25,0,0,0-1.77-7,4.7,4.7,0,0,0-6.61,1.86A5.28,5.28,0,0,0,1893.92,62.55Z" fill="#bfddeb" style="mix-blend-mode:multiply"/><path d="M1817.91,16.26a5.26,5.26,0,0,1-1.78-7,4.7,4.7,0,0,1,6.61-1.87,5.26,5.26,0,0,1,1.78,7A4.71,4.71,0,0,1,1817.91,16.26Z" fill="#bfddeb" style="mix-blend-mode:multiply"/><path d="M1820.34,11.16a.62.62,0,0,0-.32.09l-76,46.29a.71.71,0,0,0-.24.93.63.63,0,0,0,.88.24l76-46.28a.7.7,0,0,0,.24-.93A.64.64,0,0,0,1820.34,11.16Z" fill="#bfddeb" style="mix-blend-mode:multiply"/><path d="M1822.76,16.26a5.25,5.25,0,0,0,1.77-7,4.7,4.7,0,0,0-6.61-1.87,5.26,5.26,0,0,0-1.77,7A4.71,4.71,0,0,0,1822.76,16.26Z" fill="#bfddeb" style="mix-blend-mode:multiply"/><path d="M1746.74,62.55a4.71,4.71,0,0,1-6.61-1.87,5.26,5.26,0,0,1,1.77-7,4.7,4.7,0,0,1,6.61,1.86A5.26,5.26,0,0,1,1746.74,62.55Z" fill="#bfddeb" style="mix-blend-mode:multiply"/><path d="M1920,165.9l-24-14.61a.69.69,0,0,1-.24-.92.64.64,0,0,1,.56-.34.62.62,0,0,1,.32.09L1920,164.34Z" fill="#bfddeb" style="mix-blend-mode:multiply"/><path d="M1893.91,155.13a5.26,5.26,0,0,1-1.77-7,4.7,4.7,0,0,1,6.61-1.86,5.26,5.26,0,0,1,1.77,7A4.71,4.71,0,0,1,1893.91,155.13Z" fill="#bfddeb" style="mix-blend-mode:multiply"/><path d="M1896.33,57.45a.66.66,0,0,0-.65.68v92.58a.65.65,0,1,0,1.29,0V58.13A.66.66,0,0,0,1896.33,57.45Z" fill="#bfddeb" style="mix-blend-mode:multiply"/><path d="M1891.49,150.71a4.85,4.85,0,1,0,4.84-5.11A5,5,0,0,0,1891.49,150.71Z" fill="#bfddeb" style="mix-blend-mode:multiply"/><path d="M1891.49,58.13a4.85,4.85,0,1,1,4.84,5.1A5,5,0,0,1,1891.49,58.13Z" fill="#bfddeb" style="mix-blend-mode:multiply"/><path d="M1920,44.5l-23.33,14.21a.62.62,0,0,1-.88-.24.7.7,0,0,1,.23-.93l24-14.61Z" fill="#bfddeb" style="mix-blend-mode:multiply"/><path d="M1893.92,53.71a5.27,5.27,0,0,0-1.77,7,4.71,4.71,0,0,0,6.61,1.87,5.26,5.26,0,0,0,1.77-7A4.7,4.7,0,0,0,1893.92,53.71Z" fill="#bfddeb" style="mix-blend-mode:multiply"/><path d="M1896.34,57.45a.66.66,0,0,0-.64.68v92.58a.65.65,0,1,0,1.29,0V58.13A.66.66,0,0,0,1896.34,57.45Z" fill="#bfddeb" style="mix-blend-mode:multiply"/><path d="M1891.5,150.71a4.85,4.85,0,1,0,4.84-5.11A5,5,0,0,0,1891.5,150.71Z" fill="#bfddeb" style="mix-blend-mode:multiply"/><path d="M1891.5,58.13a4.85,4.85,0,1,1,4.84,5.1A5,5,0,0,1,1891.5,58.13Z" fill="#bfddeb" style="mix-blend-mode:multiply"/><path d="M1896.34,150a.62.62,0,0,0-.32.09l-76,46.29a.69.69,0,0,0-.23.92.62.62,0,0,0,.88.25l76-46.29a.69.69,0,0,0,.23-.92A.63.63,0,0,0,1896.34,150Z" fill="#bfddeb" style="mix-blend-mode:multiply"/><path d="M1898.76,155.13a5.26,5.26,0,0,0,1.77-7,4.7,4.7,0,0,0-6.61-1.86,5.26,5.26,0,0,0-1.77,7A4.71,4.71,0,0,0,1898.76,155.13Z" fill="#bfddeb" style="mix-blend-mode:multiply"/><path d="M1822.74,201.42a4.72,4.72,0,0,1-6.61-1.87,5.26,5.26,0,0,1,1.78-7,4.7,4.7,0,0,1,6.61,1.86A5.27,5.27,0,0,1,1822.74,201.42Z" fill="#bfddeb" style="mix-blend-mode:multiply"/><path d="M1744.31,150a.63.63,0,0,0-.56.34.69.69,0,0,0,.23.92l76,46.29a.62.62,0,0,0,.88-.25.68.68,0,0,0-.23-.92l-76-46.29A.62.62,0,0,0,1744.31,150Z" fill="#bfddeb" style="mix-blend-mode:multiply"/><path d="M1817.91,201.42a4.72,4.72,0,0,0,6.61-1.87,5.26,5.26,0,0,0-1.78-7,4.7,4.7,0,0,0-6.61,1.86A5.27,5.27,0,0,0,1817.91,201.42Z" fill="#bfddeb" style="mix-blend-mode:multiply"/><path d="M1741.89,155.13a5.27,5.27,0,0,1-1.78-7,4.71,4.71,0,0,1,6.62-1.86,5.26,5.26,0,0,1,1.77,7A4.71,4.71,0,0,1,1741.89,155.13Z" fill="#bfddeb" style="mix-blend-mode:multiply"/><path d="M1744.31,57.45a.66.66,0,0,0-.65.68v92.58a.65.65,0,1,0,1.29,0V58.13A.66.66,0,0,0,1744.31,57.45Z" fill="#bfddeb" style="mix-blend-mode:multiply"/><path d="M1739.47,150.71a4.85,4.85,0,1,0,4.84-5.11A5,5,0,0,0,1739.47,150.71Z" fill="#bfddeb" style="mix-blend-mode:multiply"/><path d="M1739.47,58.13a4.85,4.85,0,1,1,4.84,5.1A5,5,0,0,1,1739.47,58.13Z" fill="#bfddeb" style="mix-blend-mode:multiply"/><path d="M1820.33,11.16a.68.68,0,0,0-.33.09l-76,46.29a.71.71,0,0,0-.24.93.63.63,0,0,0,.88.24l76-46.28a.7.7,0,0,0,.23-.93A.63.63,0,0,0,1820.33,11.16Z" fill="#bfddeb" style="mix-blend-mode:multiply"/><path d="M1741.9,53.71a5.26,5.26,0,0,0-1.77,7,4.71,4.71,0,0,0,6.61,1.87,5.26,5.26,0,0,0,1.77-7A4.7,4.7,0,0,0,1741.9,53.71Z" fill="#bfddeb" style="mix-blend-mode:multiply"/><path d="M1817.9,7.42a4.71,4.71,0,0,1,6.62,1.86,5.28,5.28,0,0,1-1.77,7,4.72,4.72,0,0,1-6.62-1.87A5.27,5.27,0,0,1,1817.9,7.42Z" fill="#bfddeb" style="mix-blend-mode:multiply"/><path d="M1820.33,11.16a.63.63,0,0,0-.56.34.71.71,0,0,0,.23.93l76,46.28a.63.63,0,0,0,.88-.24.71.71,0,0,0-.23-.93l-76-46.29A.68.68,0,0,0,1820.33,11.16Z" fill="#bfddeb" style="mix-blend-mode:multiply"/><path d="M1822.74,7.42a4.7,4.7,0,0,0-6.61,1.87,5.26,5.26,0,0,0,1.78,7,4.71,4.71,0,0,0,6.61-1.87A5.26,5.26,0,0,0,1822.74,7.42Z" fill="#bfddeb" style="mix-blend-mode:multiply"/><path d="M1898.76,53.71a5.25,5.25,0,0,1,1.77,7,4.7,4.7,0,0,1-6.61,1.87,5.28,5.28,0,0,1-1.77-7A4.7,4.7,0,0,1,1898.76,53.71Z" fill="#bfddeb" style="mix-blend-mode:multiply"/><path d="M1744.32,57.45a.66.66,0,0,0-.64.68v92.58a.65.65,0,1,0,1.29,0V58.13A.66.66,0,0,0,1744.32,57.45Z" fill="#bfddeb" style="mix-blend-mode:multiply"/><path d="M1739.48,150.71a4.85,4.85,0,1,0,4.84-5.11A5,5,0,0,0,1739.48,150.71Z" fill="#bfddeb" style="mix-blend-mode:multiply"/><path d="M1739.48,58.13a4.85,4.85,0,1,1,4.84,5.1A5,5,0,0,1,1739.48,58.13Z" fill="#bfddeb" style="mix-blend-mode:multiply"/><path d="M1744.32,150a.62.62,0,0,0-.32.09l-76,46.29a.68.68,0,0,0-.23.92.62.62,0,0,0,.88.25l76-46.29a.69.69,0,0,0,.24-.92A.64.64,0,0,0,1744.32,150Z" fill="#bfddeb" style="mix-blend-mode:multiply"/><path d="M1746.74,155.13a5.26,5.26,0,0,0,1.77-7,4.7,4.7,0,0,0-6.61-1.86,5.25,5.25,0,0,0-1.77,7A4.71,4.71,0,0,0,1746.74,155.13Z" fill="#bfddeb" style="mix-blend-mode:multiply"/><path d="M1670.72,201.42a4.72,4.72,0,0,1-6.61-1.87,5.26,5.26,0,0,1,1.77-7,4.7,4.7,0,0,1,6.61,1.86A5.26,5.26,0,0,1,1670.72,201.42Z" fill="#bfddeb" style="mix-blend-mode:multiply"/><path d="M1820.33,196.32a.66.66,0,0,0-.65.68v92.57a.65.65,0,1,0,1.29,0V197A.66.66,0,0,0,1820.33,196.32Z" fill="#bfddeb" style="mix-blend-mode:multiply"/><path d="M1815.49,289.57a4.84,4.84,0,1,0,4.84-5.1A5,5,0,0,0,1815.49,289.57Z" fill="#bfddeb" style="mix-blend-mode:multiply"/><path d="M1815.49,197a4.85,4.85,0,1,1,4.84,5.1A5,5,0,0,1,1815.49,197Z" fill="#bfddeb" style="mix-blend-mode:multiply"/><path d="M1896.34,150a.62.62,0,0,0-.32.09l-76,46.29a.7.7,0,0,0-.24.92.62.62,0,0,0,.88.25l76-46.29a.69.69,0,0,0,.23-.92A.63.63,0,0,0,1896.34,150Z" fill="#bfddeb" style="mix-blend-mode:multiply"/><path d="M1817.92,192.58a5.25,5.25,0,0,0-1.77,7,4.72,4.72,0,0,0,6.61,1.87,5.26,5.26,0,0,0,1.77-7A4.7,4.7,0,0,0,1817.92,192.58Z" fill="#bfddeb" style="mix-blend-mode:multiply"/><path d="M1893.92,146.29a4.7,4.7,0,0,1,6.61,1.86,5.26,5.26,0,0,1-1.77,7,4.71,4.71,0,0,1-6.61-1.87A5.27,5.27,0,0,1,1893.92,146.29Z" fill="#bfddeb" style="mix-blend-mode:multiply"/><path d="M1920,165.89l-24-14.6a.68.68,0,0,1-.23-.92.63.63,0,0,1,.55-.34.68.68,0,0,1,.33.09L1920,164.33Z" fill="#bfddeb" style="mix-blend-mode:multiply"/><path d="M1898.76,146.29a4.7,4.7,0,0,0-6.61,1.86,5.28,5.28,0,0,0,1.77,7,4.7,4.7,0,0,0,6.61-1.87A5.24,5.24,0,0,0,1898.76,146.29Z" fill="#bfddeb" style="mix-blend-mode:multiply"/><path d="M1820.34,196.32a.66.66,0,0,0-.64.68v92.57a.64.64,0,1,0,1.28,0V197A.65.65,0,0,0,1820.34,196.32Z" fill="#bfddeb" style="mix-blend-mode:multiply"/><path d="M1815.5,289.57a4.85,4.85,0,1,0,4.84-5.1A5,5,0,0,0,1815.5,289.57Z" fill="#bfddeb" style="mix-blend-mode:multiply"/><path d="M1815.5,197a4.85,4.85,0,1,1,4.84,5.1A5,5,0,0,1,1815.5,197Z" fill="#bfddeb" style="mix-blend-mode:multiply"/><path d="M1820.34,288.9a.62.62,0,0,0-.32.09l-76,46.29a.7.7,0,0,0-.24.92.62.62,0,0,0,.88.25l76-46.29a.69.69,0,0,0,.24-.92A.64.64,0,0,0,1820.34,288.9Z" fill="#bfddeb" style="mix-blend-mode:multiply"/><path d="M1822.76,294a5.24,5.24,0,0,0,1.77-7,4.7,4.7,0,0,0-6.61-1.87,5.27,5.27,0,0,0-1.77,7A4.7,4.7,0,0,0,1822.76,294Z" fill="#bfddeb" style="mix-blend-mode:multiply"/><path d="M1746.74,340.28a4.7,4.7,0,0,1-6.61-1.86,5.27,5.27,0,0,1,1.77-7,4.7,4.7,0,0,1,6.61,1.87A5.25,5.25,0,0,1,1746.74,340.28Z" fill="#bfddeb" style="mix-blend-mode:multiply"/><path d="M1668.3,288.9a.61.61,0,0,0-.55.34.68.68,0,0,0,.23.92l76,46.29a.62.62,0,0,0,.88-.25.69.69,0,0,0-.24-.92l-76-46.29A.68.68,0,0,0,1668.3,288.9Z" fill="#bfddeb" style="mix-blend-mode:multiply"/><path d="M1741.9,340.28a4.7,4.7,0,0,0,6.61-1.86,5.26,5.26,0,0,0-1.77-7,4.71,4.71,0,0,0-6.61,1.87A5.26,5.26,0,0,0,1741.9,340.28Z" fill="#bfddeb" style="mix-blend-mode:multiply"/><path d="M1665.88,294a5.26,5.26,0,0,1-1.77-7,4.71,4.71,0,0,1,6.61-1.87,5.26,5.26,0,0,1,1.77,7A4.7,4.7,0,0,1,1665.88,294Z" fill="#bfddeb" style="mix-blend-mode:multiply"/><path d="M1668.3,196.32a.66.66,0,0,0-.64.68v92.57a.65.65,0,1,0,1.29,0V197A.66.66,0,0,0,1668.3,196.32Z" fill="#bfddeb" style="mix-blend-mode:multiply"/><path d="M1663.46,289.57a4.85,4.85,0,1,0,4.84-5.1A5,5,0,0,0,1663.46,289.57Z" fill="#bfddeb" style="mix-blend-mode:multiply"/><ellipse cx="1668.3" cy="197" rx="4.84" ry="5.1" fill="#bfddeb" style="mix-blend-mode:multiply"/><path d="M1744.32,150a.62.62,0,0,0-.32.09l-76,46.29a.69.69,0,0,0-.24.92.62.62,0,0,0,.88.25l76-46.29a.69.69,0,0,0,.24-.92A.64.64,0,0,0,1744.32,150Z" fill="#bfddeb" style="mix-blend-mode:multiply"/><path d="M1665.9,192.58a5.24,5.24,0,0,0-1.77,7,4.71,4.71,0,0,0,6.61,1.87,5.27,5.27,0,0,0,1.77-7A4.7,4.7,0,0,0,1665.9,192.58Z" fill="#bfddeb" style="mix-blend-mode:multiply"/><path d="M1741.9,146.29a4.7,4.7,0,0,1,6.61,1.86,5.26,5.26,0,0,1-1.77,7,4.71,4.71,0,0,1-6.61-1.87A5.26,5.26,0,0,1,1741.9,146.29Z" fill="#bfddeb" style="mix-blend-mode:multiply"/><path d="M1744.32,150a.64.64,0,0,0-.56.34.7.7,0,0,0,.24.92l76,46.29a.62.62,0,0,0,.88-.25.69.69,0,0,0-.24-.92l-76-46.29A.62.62,0,0,0,1744.32,150Z" fill="#bfddeb" style="mix-blend-mode:multiply"/><path d="M1746.74,146.29a4.7,4.7,0,0,0-6.61,1.86,5.27,5.27,0,0,0,1.77,7,4.7,4.7,0,0,0,6.61-1.87A5.24,5.24,0,0,0,1746.74,146.29Z" fill="#bfddeb" style="mix-blend-mode:multiply"/><path d="M1822.76,192.58a5.24,5.24,0,0,1,1.77,7,4.71,4.71,0,0,1-6.61,1.87,5.27,5.27,0,0,1-1.77-7A4.7,4.7,0,0,1,1822.76,192.58Z" fill="#bfddeb" style="mix-blend-mode:multiply"/><path d="M1668.32,196.32a.66.66,0,0,0-.65.68v92.57a.65.65,0,1,0,1.29,0V197A.66.66,0,0,0,1668.32,196.32Z" fill="#bfddeb" style="mix-blend-mode:multiply"/><path d="M1663.48,289.57a4.85,4.85,0,1,0,4.84-5.1A5,5,0,0,0,1663.48,289.57Z" fill="#bfddeb" style="mix-blend-mode:multiply"/><path d="M1663.48,197a4.85,4.85,0,1,1,4.84,5.1A5,5,0,0,1,1663.48,197Z" fill="#bfddeb" style="mix-blend-mode:multiply"/><path d="M1668.32,288.9a.62.62,0,0,0-.32.09l-76,46.29a.69.69,0,0,0-.24.92.62.62,0,0,0,.88.25l76-46.29a.7.7,0,0,0,.24-.92A.64.64,0,0,0,1668.32,288.9Z" fill="#bfddeb" style="mix-blend-mode:multiply"/><path d="M1670.74,294a5.25,5.25,0,0,0,1.77-7,4.71,4.71,0,0,0-6.61-1.87,5.27,5.27,0,0,0-1.77,7A4.7,4.7,0,0,0,1670.74,294Z" fill="#bfddeb" style="mix-blend-mode:multiply"/><path d="M1594.72,340.28a4.7,4.7,0,0,1-6.61-1.86,5.27,5.27,0,0,1,1.77-7,4.71,4.71,0,0,1,6.61,1.87A5.26,5.26,0,0,1,1594.72,340.28Z" fill="#bfddeb" style="mix-blend-mode:multiply"/><path d="M1896.34,427.76a.62.62,0,0,0-.32.09l-76,46.29a.71.71,0,0,0-.23.93.63.63,0,0,0,.88.25l76-46.29a.71.71,0,0,0,.23-.93A.65.65,0,0,0,1896.34,427.76Z" fill="#bfddeb" style="mix-blend-mode:multiply"/><path d="M1898.76,432.86a5.25,5.25,0,0,0,1.77-7,4.7,4.7,0,0,0-6.61-1.87,5.27,5.27,0,0,0-1.77,7A4.7,4.7,0,0,0,1898.76,432.86Z" fill="#bfddeb" style="mix-blend-mode:multiply"/><path d="M1822.74,479.15a4.7,4.7,0,0,1-6.61-1.87,5.26,5.26,0,0,1,1.78-7,4.71,4.71,0,0,1,6.61,1.87A5.26,5.26,0,0,1,1822.74,479.15Z" fill="#bfddeb" style="mix-blend-mode:multiply"/><path d="M1744.31,427.76a.65.65,0,0,0-.56.34.71.71,0,0,0,.23.93l76,46.29a.63.63,0,0,0,.88-.25.7.7,0,0,0-.23-.93l-76-46.29A.62.62,0,0,0,1744.31,427.76Z" fill="#bfddeb" style="mix-blend-mode:multiply"/><path d="M1817.91,479.15a4.7,4.7,0,0,0,6.61-1.87,5.26,5.26,0,0,0-1.78-7,4.71,4.71,0,0,0-6.61,1.87A5.26,5.26,0,0,0,1817.91,479.15Z" fill="#bfddeb" style="mix-blend-mode:multiply"/><path d="M1741.89,432.86a5.26,5.26,0,0,1-1.78-7,4.72,4.72,0,0,1,6.62-1.87,5.27,5.27,0,0,1,1.77,7A4.7,4.7,0,0,1,1741.89,432.86Z" fill="#bfddeb" style="mix-blend-mode:multiply"/><path d="M1744.31,335.18a.67.67,0,0,0-.65.68v92.58a.65.65,0,1,0,1.29,0V335.86A.67.67,0,0,0,1744.31,335.18Z" fill="#bfddeb" style="mix-blend-mode:multiply"/><path d="M1739.47,428.44a4.85,4.85,0,1,0,4.84-5.1A5,5,0,0,0,1739.47,428.44Z" fill="#bfddeb" style="mix-blend-mode:multiply"/><path d="M1739.47,335.86a4.85,4.85,0,1,1,4.84,5.11A5,5,0,0,1,1739.47,335.86Z" fill="#bfddeb" style="mix-blend-mode:multiply"/><path d="M1820.33,288.9a.68.68,0,0,0-.33.09l-76,46.29a.7.7,0,0,0-.24.92.62.62,0,0,0,.88.25l76-46.29a.68.68,0,0,0,.23-.92A.63.63,0,0,0,1820.33,288.9Z" fill="#bfddeb" style="mix-blend-mode:multiply"/><path d="M1741.9,331.44a5.27,5.27,0,0,0-1.77,7,4.7,4.7,0,0,0,6.61,1.86,5.25,5.25,0,0,0,1.77-7A4.7,4.7,0,0,0,1741.9,331.44Z" fill="#bfddeb" style="mix-blend-mode:multiply"/><path d="M1817.9,285.15a4.72,4.72,0,0,1,6.62,1.87,5.27,5.27,0,0,1-1.77,7,4.71,4.71,0,0,1-6.62-1.86A5.28,5.28,0,0,1,1817.9,285.15Z" fill="#bfddeb" style="mix-blend-mode:multiply"/><path d="M1744.32,335.18a.67.67,0,0,0-.64.68v92.58a.65.65,0,1,0,1.29,0V335.86A.67.67,0,0,0,1744.32,335.18Z" fill="#bfddeb" style="mix-blend-mode:multiply"/><path d="M1739.48,428.44a4.85,4.85,0,1,0,4.84-5.1A5,5,0,0,0,1739.48,428.44Z" fill="#bfddeb" style="mix-blend-mode:multiply"/><path d="M1739.48,335.86a4.85,4.85,0,1,1,4.84,5.11A5,5,0,0,1,1739.48,335.86Z" fill="#bfddeb" style="mix-blend-mode:multiply"/><path d="M1744.32,427.76a.62.62,0,0,0-.32.09l-76,46.29a.7.7,0,0,0-.23.93.63.63,0,0,0,.88.25l76-46.29a.7.7,0,0,0,.24-.93A.66.66,0,0,0,1744.32,427.76Z" fill="#bfddeb" style="mix-blend-mode:multiply"/><path d="M1746.74,432.86a5.25,5.25,0,0,0,1.77-7,4.7,4.7,0,0,0-6.61-1.87,5.26,5.26,0,0,0-1.77,7A4.7,4.7,0,0,0,1746.74,432.86Z" fill="#bfddeb" style="mix-blend-mode:multiply"/><path d="M1670.72,479.15a4.7,4.7,0,0,1-6.61-1.87,5.27,5.27,0,0,1,1.77-7,4.7,4.7,0,0,1,6.61,1.87A5.25,5.25,0,0,1,1670.72,479.15Z" fill="#bfddeb" style="mix-blend-mode:multiply"/><path d="M1592.28,427.76a.66.66,0,0,0-.56.34.71.71,0,0,0,.24.93l76,46.29a.63.63,0,0,0,.88-.25.71.71,0,0,0-.23-.93l-76-46.29A.62.62,0,0,0,1592.28,427.76Z" fill="#bfddeb" style="mix-blend-mode:multiply"/><path d="M1665.88,479.15a4.7,4.7,0,0,0,6.61-1.87,5.25,5.25,0,0,0-1.77-7,4.71,4.71,0,0,0-6.61,1.87A5.27,5.27,0,0,0,1665.88,479.15Z" fill="#bfddeb" style="mix-blend-mode:multiply"/><path d="M1589.86,432.86a5.27,5.27,0,0,1-1.77-7,4.71,4.71,0,0,1,6.61-1.87,5.25,5.25,0,0,1,1.77,7A4.7,4.7,0,0,1,1589.86,432.86Z" fill="#bfddeb" style="mix-blend-mode:multiply"/><path d="M1592.28,335.18a.67.67,0,0,0-.64.68v92.58a.65.65,0,1,0,1.29,0V335.86A.67.67,0,0,0,1592.28,335.18Z" fill="#bfddeb" style="mix-blend-mode:multiply"/><path d="M1587.44,428.44a4.85,4.85,0,1,0,4.84-5.1A5,5,0,0,0,1587.44,428.44Z" fill="#bfddeb" style="mix-blend-mode:multiply"/><path d="M1587.45,335.86a4.84,4.84,0,1,1,4.83,5.11A5,5,0,0,1,1587.45,335.86Z" fill="#bfddeb" style="mix-blend-mode:multiply"/><path d="M1668.3,288.9a.62.62,0,0,0-.32.09l-76,46.29a.69.69,0,0,0-.24.92.62.62,0,0,0,.88.25l76-46.29a.69.69,0,0,0,.23-.92A.64.64,0,0,0,1668.3,288.9Z" fill="#bfddeb" style="mix-blend-mode:multiply"/><path d="M1589.88,331.44a5.27,5.27,0,0,0-1.77,7,4.7,4.7,0,0,0,6.61,1.86,5.26,5.26,0,0,0,1.77-7A4.71,4.71,0,0,0,1589.88,331.44Z" fill="#bfddeb" style="mix-blend-mode:multiply"/><path d="M1665.88,285.15a4.7,4.7,0,0,1,6.61,1.87,5.25,5.25,0,0,1-1.77,7,4.7,4.7,0,0,1-6.61-1.86A5.28,5.28,0,0,1,1665.88,285.15Z" fill="#bfddeb" style="mix-blend-mode:multiply"/><path d="M1668.3,288.9a.61.61,0,0,0-.55.34.68.68,0,0,0,.23.92l76,46.29a.62.62,0,0,0,.88-.25.69.69,0,0,0-.24-.92l-76-46.29A.68.68,0,0,0,1668.3,288.9Z" fill="#bfddeb" style="mix-blend-mode:multiply"/><path d="M1670.72,285.15a4.71,4.71,0,0,0-6.61,1.87,5.26,5.26,0,0,0,1.77,7,4.7,4.7,0,0,0,6.61-1.86A5.26,5.26,0,0,0,1670.72,285.15Z" fill="#bfddeb" style="mix-blend-mode:multiply"/><path d="M1746.74,331.44a5.26,5.26,0,0,1,1.77,7,4.7,4.7,0,0,1-6.61,1.86,5.26,5.26,0,0,1-1.77-7A4.71,4.71,0,0,1,1746.74,331.44Z" fill="#bfddeb" style="mix-blend-mode:multiply"/><path d="M1592.3,335.18a.66.66,0,0,0-.64.68v92.58a.64.64,0,1,0,1.28,0V335.86A.66.66,0,0,0,1592.3,335.18Z" fill="#bfddeb" style="mix-blend-mode:multiply"/><path d="M1587.46,428.44a4.85,4.85,0,1,0,4.84-5.1A5,5,0,0,0,1587.46,428.44Z" fill="#bfddeb" style="mix-blend-mode:multiply"/><path d="M1587.46,335.86a4.85,4.85,0,1,1,4.84,5.11A5,5,0,0,1,1587.46,335.86Z" fill="#bfddeb" style="mix-blend-mode:multiply"/><path d="M1820.33,566.63a.63.63,0,0,0-.56.34.71.71,0,0,0,.23.93l76,46.29a.64.64,0,0,0,.88-.25.71.71,0,0,0-.23-.93l-76-46.29A.68.68,0,0,0,1820.33,566.63Z" fill="#bfddeb" style="mix-blend-mode:multiply"/><path d="M1893.92,618a4.7,4.7,0,0,0,6.61-1.87,5.25,5.25,0,0,0-1.77-7,4.71,4.71,0,0,0-6.61,1.87A5.27,5.27,0,0,0,1893.92,618Z" fill="#bfddeb" style="mix-blend-mode:multiply"/><path d="M1817.91,571.73a5.26,5.26,0,0,1-1.78-7,4.71,4.71,0,0,1,6.61-1.87,5.26,5.26,0,0,1,1.78,7A4.71,4.71,0,0,1,1817.91,571.73Z" fill="#bfddeb" style="mix-blend-mode:multiply"/><path d="M1820.33,474.05a.67.67,0,0,0-.65.68v92.58a.65.65,0,1,0,1.29,0V474.73A.67.67,0,0,0,1820.33,474.05Z" fill="#bfddeb" style="mix-blend-mode:multiply"/><path d="M1815.49,567.31a4.84,4.84,0,1,0,4.84-5.1A5,5,0,0,0,1815.49,567.31Z" fill="#bfddeb" style="mix-blend-mode:multiply"/><path d="M1815.49,474.73a4.85,4.85,0,1,1,4.84,5.11A5,5,0,0,1,1815.49,474.73Z" fill="#bfddeb" style="mix-blend-mode:multiply"/><path d="M1896.34,427.76a.62.62,0,0,0-.32.09l-76,46.29a.71.71,0,0,0-.24.93.63.63,0,0,0,.88.25l76-46.29a.71.71,0,0,0,.23-.93A.65.65,0,0,0,1896.34,427.76Z" fill="#bfddeb" style="mix-blend-mode:multiply"/><path d="M1817.92,470.31a5.26,5.26,0,0,0-1.77,7,4.7,4.7,0,0,0,6.61,1.87,5.25,5.25,0,0,0,1.77-7A4.7,4.7,0,0,0,1817.92,470.31Z" fill="#bfddeb" style="mix-blend-mode:multiply"/><path d="M1893.92,424a4.7,4.7,0,0,1,6.61,1.87,5.25,5.25,0,0,1-1.77,7,4.7,4.7,0,0,1-6.61-1.86A5.28,5.28,0,0,1,1893.92,424Z" fill="#bfddeb" style="mix-blend-mode:multiply"/><path d="M1820.34,474.05a.67.67,0,0,0-.64.68v92.58a.64.64,0,1,0,1.28,0V474.73A.66.66,0,0,0,1820.34,474.05Z" fill="#bfddeb" style="mix-blend-mode:multiply"/><path d="M1815.5,567.31a4.85,4.85,0,1,0,4.84-5.1A5,5,0,0,0,1815.5,567.31Z" fill="#bfddeb" style="mix-blend-mode:multiply"/><path d="M1815.5,474.73a4.85,4.85,0,1,1,4.84,5.11A5,5,0,0,1,1815.5,474.73Z" fill="#bfddeb" style="mix-blend-mode:multiply"/><path d="M1820.34,566.63a.62.62,0,0,0-.32.09L1744,613a.71.71,0,0,0-.24.93.64.64,0,0,0,.88.25l76-46.29a.7.7,0,0,0,.24-.93A.64.64,0,0,0,1820.34,566.63Z" fill="#bfddeb" style="mix-blend-mode:multiply"/><path d="M1822.76,571.73a5.25,5.25,0,0,0,1.77-7,4.7,4.7,0,0,0-6.61-1.87,5.26,5.26,0,0,0-1.77,7A4.71,4.71,0,0,0,1822.76,571.73Z" fill="#bfddeb" style="mix-blend-mode:multiply"/><path d="M1746.74,618a4.71,4.71,0,0,1-6.61-1.87,5.26,5.26,0,0,1,1.77-7,4.7,4.7,0,0,1,6.61,1.87A5.25,5.25,0,0,1,1746.74,618Z" fill="#bfddeb" style="mix-blend-mode:multiply"/><path d="M1668.3,566.63a.61.61,0,0,0-.55.34.7.7,0,0,0,.23.93l76,46.29a.64.64,0,0,0,.88-.25.7.7,0,0,0-.24-.93l-76-46.29A.68.68,0,0,0,1668.3,566.63Z" fill="#bfddeb" style="mix-blend-mode:multiply"/><path d="M1741.9,618a4.7,4.7,0,0,0,6.61-1.87,5.25,5.25,0,0,0-1.77-7,4.71,4.71,0,0,0-6.61,1.87A5.26,5.26,0,0,0,1741.9,618Z" fill="#bfddeb" style="mix-blend-mode:multiply"/><path d="M1665.88,571.73a5.27,5.27,0,0,1-1.77-7,4.71,4.71,0,0,1,6.61-1.87,5.25,5.25,0,0,1,1.77,7A4.7,4.7,0,0,1,1665.88,571.73Z" fill="#bfddeb" style="mix-blend-mode:multiply"/><path d="M1668.3,474.05a.67.67,0,0,0-.64.68v92.58a.65.65,0,1,0,1.29,0V474.73A.67.67,0,0,0,1668.3,474.05Z" fill="#bfddeb" style="mix-blend-mode:multiply"/><path d="M1663.46,567.31a4.85,4.85,0,1,0,4.84-5.1A5,5,0,0,0,1663.46,567.31Z" fill="#bfddeb" style="mix-blend-mode:multiply"/><path d="M1663.46,474.73a4.85,4.85,0,1,1,4.84,5.11A5,5,0,0,1,1663.46,474.73Z" fill="#bfddeb" style="mix-blend-mode:multiply"/><path d="M1744.32,427.76a.62.62,0,0,0-.32.09l-76,46.29a.7.7,0,0,0-.24.93.63.63,0,0,0,.88.25l76-46.29a.7.7,0,0,0,.24-.93A.66.66,0,0,0,1744.32,427.76Z" fill="#bfddeb" style="mix-blend-mode:multiply"/><path d="M1665.9,470.31a5.25,5.25,0,0,0-1.77,7,4.7,4.7,0,0,0,6.61,1.87,5.26,5.26,0,0,0,1.77-7A4.71,4.71,0,0,0,1665.9,470.31Z" fill="#bfddeb" style="mix-blend-mode:multiply"/><path d="M1741.9,424a4.7,4.7,0,0,1,6.61,1.87,5.25,5.25,0,0,1-1.77,7,4.7,4.7,0,0,1-6.61-1.86A5.27,5.27,0,0,1,1741.9,424Z" fill="#bfddeb" style="mix-blend-mode:multiply"/><path d="M1744.32,427.76a.66.66,0,0,0-.56.34.71.71,0,0,0,.24.93l76,46.29a.63.63,0,0,0,.88-.25.7.7,0,0,0-.24-.93l-76-46.29A.62.62,0,0,0,1744.32,427.76Z" fill="#bfddeb" style="mix-blend-mode:multiply"/><path d="M1746.74,424a4.71,4.71,0,0,0-6.61,1.87,5.26,5.26,0,0,0,1.77,7,4.7,4.7,0,0,0,6.61-1.87A5.25,5.25,0,0,0,1746.74,424Z" fill="#bfddeb" style="mix-blend-mode:multiply"/><path d="M1822.76,470.31a5.25,5.25,0,0,1,1.77,7,4.7,4.7,0,0,1-6.61,1.87,5.26,5.26,0,0,1-1.77-7A4.71,4.71,0,0,1,1822.76,470.31Z" fill="#bfddeb" style="mix-blend-mode:multiply"/><path d="M1668.32,474.05a.67.67,0,0,0-.65.68v92.58a.65.65,0,1,0,1.29,0V474.73A.67.67,0,0,0,1668.32,474.05Z" fill="#bfddeb" style="mix-blend-mode:multiply"/><path d="M1663.48,567.31a4.85,4.85,0,1,0,4.84-5.1A5,5,0,0,0,1663.48,567.31Z" fill="#bfddeb" style="mix-blend-mode:multiply"/><path d="M1663.48,474.73a4.85,4.85,0,1,1,4.84,5.11A5,5,0,0,1,1663.48,474.73Z" fill="#bfddeb" style="mix-blend-mode:multiply"/><path d="M1668.32,566.63a.62.62,0,0,0-.32.09L1592,613a.7.7,0,0,0-.24.93.64.64,0,0,0,.88.25l76-46.29a.71.71,0,0,0,.24-.93A.64.64,0,0,0,1668.32,566.63Z" fill="#bfddeb" style="mix-blend-mode:multiply"/><path d="M1670.74,571.73a5.26,5.26,0,0,0,1.77-7,4.71,4.71,0,0,0-6.61-1.87,5.26,5.26,0,0,0-1.77,7A4.7,4.7,0,0,0,1670.74,571.73Z" fill="#bfddeb" style="mix-blend-mode:multiply"/><path d="M1594.72,618a4.71,4.71,0,0,1-6.61-1.87,5.26,5.26,0,0,1,1.77-7,4.71,4.71,0,0,1,6.61,1.87A5.26,5.26,0,0,1,1594.72,618Z" fill="#bfddeb" style="mix-blend-mode:multiply"/><path d="M1592.3,427.76a.66.66,0,0,0-.56.34.7.7,0,0,0,.24.93l76,46.29a.63.63,0,0,0,.88-.25.71.71,0,0,0-.24-.93l-76-46.29A.62.62,0,0,0,1592.3,427.76Z" fill="#bfddeb" style="mix-blend-mode:multiply"/><path d="M1594.72,424a4.71,4.71,0,0,0-6.61,1.87,5.26,5.26,0,0,0,1.77,7,4.7,4.7,0,0,0,6.61-1.87A5.26,5.26,0,0,0,1594.72,424Z" fill="#bfddeb" style="mix-blend-mode:multiply"/><path d="M1670.74,470.31a5.26,5.26,0,0,1,1.77,7,4.7,4.7,0,0,1-6.61,1.87,5.26,5.26,0,0,1-1.77-7A4.7,4.7,0,0,1,1670.74,470.31Z" fill="#bfddeb" style="mix-blend-mode:multiply"/><path d="M1920,721.38l-24-14.61a.7.7,0,0,1-.24-.93.64.64,0,0,1,.56-.34.62.62,0,0,1,.32.09L1920,719.81Z" fill="#bfddeb" style="mix-blend-mode:multiply"/><path d="M1893.91,710.6a5.25,5.25,0,0,1-1.77-7,4.7,4.7,0,0,1,6.61-1.87,5.27,5.27,0,0,1,1.77,7A4.71,4.71,0,0,1,1893.91,710.6Z" fill="#bfddeb" style="mix-blend-mode:multiply"/><path d="M1896.33,612.92a.67.67,0,0,0-.65.68v92.58a.65.65,0,1,0,1.29,0V613.6A.67.67,0,0,0,1896.33,612.92Z" fill="#bfddeb" style="mix-blend-mode:multiply"/><path d="M1891.49,706.18a4.85,4.85,0,1,0,4.84-5.1A5,5,0,0,0,1891.49,706.18Z" fill="#bfddeb" style="mix-blend-mode:multiply"/><path d="M1891.49,613.6a4.85,4.85,0,1,1,4.84,5.11A5,5,0,0,1,1891.49,613.6Z" fill="#bfddeb" style="mix-blend-mode:multiply"/><path d="M1896.34,612.92a.67.67,0,0,0-.64.68v92.58a.65.65,0,1,0,1.29,0V613.6A.67.67,0,0,0,1896.34,612.92Z" fill="#bfddeb" style="mix-blend-mode:multiply"/><path d="M1891.5,706.18a4.85,4.85,0,1,0,4.84-5.1A5,5,0,0,0,1891.5,706.18Z" fill="#bfddeb" style="mix-blend-mode:multiply"/><path d="M1891.5,613.6a4.85,4.85,0,1,1,4.84,5.11A5,5,0,0,1,1891.5,613.6Z" fill="#bfddeb" style="mix-blend-mode:multiply"/><path d="M1896.34,705.5a.62.62,0,0,0-.32.09l-76,46.29a.71.71,0,0,0-.23.93.64.64,0,0,0,.88.25l76-46.29a.71.71,0,0,0,.23-.93A.63.63,0,0,0,1896.34,705.5Z" fill="#bfddeb" style="mix-blend-mode:multiply"/><path d="M1898.76,710.6a5.25,5.25,0,0,0,1.77-7,4.7,4.7,0,0,0-6.61-1.87,5.27,5.27,0,0,0-1.77,7A4.71,4.71,0,0,0,1898.76,710.6Z" fill="#bfddeb" style="mix-blend-mode:multiply"/><path d="M1822.74,756.89a4.71,4.71,0,0,1-6.61-1.87,5.26,5.26,0,0,1,1.78-7,4.71,4.71,0,0,1,6.61,1.87A5.26,5.26,0,0,1,1822.74,756.89Z" fill="#bfddeb" style="mix-blend-mode:multiply"/><path d="M1744.31,705.5a.63.63,0,0,0-.56.34.71.71,0,0,0,.23.93l76,46.29a.63.63,0,0,0,.88-.25.7.7,0,0,0-.23-.93l-76-46.29A.62.62,0,0,0,1744.31,705.5Z" fill="#bfddeb" style="mix-blend-mode:multiply"/><path d="M1817.91,756.89a4.71,4.71,0,0,0,6.61-1.87,5.26,5.26,0,0,0-1.78-7,4.71,4.71,0,0,0-6.61,1.87A5.26,5.26,0,0,0,1817.91,756.89Z" fill="#bfddeb" style="mix-blend-mode:multiply"/><path d="M1741.89,710.6a5.26,5.26,0,0,1-1.78-7,4.72,4.72,0,0,1,6.62-1.87,5.27,5.27,0,0,1,1.77,7A4.71,4.71,0,0,1,1741.89,710.6Z" fill="#bfddeb" style="mix-blend-mode:multiply"/><path d="M1744.31,612.92a.67.67,0,0,0-.65.68v92.58a.65.65,0,1,0,1.29,0V613.6A.67.67,0,0,0,1744.31,612.92Z" fill="#bfddeb" style="mix-blend-mode:multiply"/><path d="M1739.47,706.18a4.85,4.85,0,1,0,4.84-5.1A5,5,0,0,0,1739.47,706.18Z" fill="#bfddeb" style="mix-blend-mode:multiply"/><path d="M1739.47,613.6a4.85,4.85,0,1,1,4.84,5.11A5,5,0,0,1,1739.47,613.6Z" fill="#bfddeb" style="mix-blend-mode:multiply"/><path d="M1820.33,566.63a.68.68,0,0,0-.33.09L1744,613a.71.71,0,0,0-.24.93.64.64,0,0,0,.88.25l76-46.29a.7.7,0,0,0,.23-.93A.63.63,0,0,0,1820.33,566.63Z" fill="#bfddeb" style="mix-blend-mode:multiply"/><path d="M1741.9,609.18a5.26,5.26,0,0,0-1.77,7,4.71,4.71,0,0,0,6.61,1.87,5.25,5.25,0,0,0,1.77-7A4.7,4.7,0,0,0,1741.9,609.18Z" fill="#bfddeb" style="mix-blend-mode:multiply"/><path d="M1817.9,562.89a4.72,4.72,0,0,1,6.62,1.87,5.27,5.27,0,0,1-1.77,7,4.72,4.72,0,0,1-6.62-1.87A5.27,5.27,0,0,1,1817.9,562.89Z" fill="#bfddeb" style="mix-blend-mode:multiply"/><path d="M1820.33,566.63a.63.63,0,0,0-.56.34.71.71,0,0,0,.23.93l76,46.29a.64.64,0,0,0,.88-.25.71.71,0,0,0-.23-.93l-76-46.29A.68.68,0,0,0,1820.33,566.63Z" fill="#bfddeb" style="mix-blend-mode:multiply"/><path d="M1822.74,562.89a4.71,4.71,0,0,0-6.61,1.87,5.26,5.26,0,0,0,1.78,7,4.71,4.71,0,0,0,6.61-1.87A5.26,5.26,0,0,0,1822.74,562.89Z" fill="#bfddeb" style="mix-blend-mode:multiply"/><path d="M1898.76,609.18a5.25,5.25,0,0,1,1.77,7,4.7,4.7,0,0,1-6.61,1.87,5.27,5.27,0,0,1-1.77-7A4.71,4.71,0,0,1,1898.76,609.18Z" fill="#bfddeb" style="mix-blend-mode:multiply"/><path d="M1744.32,612.92a.67.67,0,0,0-.64.68v92.58a.65.65,0,1,0,1.29,0V613.6A.67.67,0,0,0,1744.32,612.92Z" fill="#bfddeb" style="mix-blend-mode:multiply"/><path d="M1739.48,706.18a4.85,4.85,0,1,0,4.84-5.1A5,5,0,0,0,1739.48,706.18Z" fill="#bfddeb" style="mix-blend-mode:multiply"/><path d="M1739.48,613.6a4.85,4.85,0,1,1,4.84,5.11A5,5,0,0,1,1739.48,613.6Z" fill="#bfddeb" style="mix-blend-mode:multiply"/><path d="M1744.32,705.5a.62.62,0,0,0-.32.09l-76,46.29a.7.7,0,0,0-.23.93.64.64,0,0,0,.88.25l76-46.29a.7.7,0,0,0,.24-.93A.64.64,0,0,0,1744.32,705.5Z" fill="#bfddeb" style="mix-blend-mode:multiply"/><path d="M1746.74,710.6a5.25,5.25,0,0,0,1.77-7,4.7,4.7,0,0,0-6.61-1.87,5.26,5.26,0,0,0-1.77,7A4.71,4.71,0,0,0,1746.74,710.6Z" fill="#bfddeb" style="mix-blend-mode:multiply"/><path d="M1670.72,756.89a4.71,4.71,0,0,1-6.61-1.87,5.27,5.27,0,0,1,1.77-7,4.7,4.7,0,0,1,6.61,1.87A5.25,5.25,0,0,1,1670.72,756.89Z" fill="#bfddeb" style="mix-blend-mode:multiply"/><path d="M1592.28,705.5a.64.64,0,0,0-.56.34.71.71,0,0,0,.24.93l76,46.29a.64.64,0,0,0,.88-.25.71.71,0,0,0-.23-.93l-76-46.29A.62.62,0,0,0,1592.28,705.5Z" fill="#bfddeb" style="mix-blend-mode:multiply"/><path d="M1665.88,756.89a4.7,4.7,0,0,0,6.61-1.87,5.25,5.25,0,0,0-1.77-7,4.71,4.71,0,0,0-6.61,1.87A5.27,5.27,0,0,0,1665.88,756.89Z" fill="#bfddeb" style="mix-blend-mode:multiply"/><path d="M1589.86,710.6a5.27,5.27,0,0,1-1.77-7,4.71,4.71,0,0,1,6.61-1.87,5.25,5.25,0,0,1,1.77,7A4.7,4.7,0,0,1,1589.86,710.6Z" fill="#bfddeb" style="mix-blend-mode:multiply"/><path d="M1592.28,612.92a.67.67,0,0,0-.64.68v92.58a.65.65,0,1,0,1.29,0V613.6A.67.67,0,0,0,1592.28,612.92Z" fill="#bfddeb" style="mix-blend-mode:multiply"/><path d="M1587.44,706.18a4.85,4.85,0,1,0,4.84-5.1A5,5,0,0,0,1587.44,706.18Z" fill="#bfddeb" style="mix-blend-mode:multiply"/><path d="M1587.45,613.6a4.84,4.84,0,1,1,4.83,5.11A5,5,0,0,1,1587.45,613.6Z" fill="#bfddeb" style="mix-blend-mode:multiply"/><path d="M1668.3,566.63a.62.62,0,0,0-.32.09L1592,613a.7.7,0,0,0-.24.93.64.64,0,0,0,.88.25l76-46.29a.71.71,0,0,0,.23-.93A.64.64,0,0,0,1668.3,566.63Z" fill="#bfddeb" style="mix-blend-mode:multiply"/><path d="M1589.88,609.18a5.26,5.26,0,0,0-1.77,7,4.71,4.71,0,0,0,6.61,1.87,5.26,5.26,0,0,0,1.77-7A4.71,4.71,0,0,0,1589.88,609.18Z" fill="#bfddeb" style="mix-blend-mode:multiply"/><path d="M1665.88,562.89a4.7,4.7,0,0,1,6.61,1.87,5.25,5.25,0,0,1-1.77,7,4.71,4.71,0,0,1-6.61-1.87A5.27,5.27,0,0,1,1665.88,562.89Z" fill="#bfddeb" style="mix-blend-mode:multiply"/><path d="M1668.3,566.63a.61.61,0,0,0-.55.34.7.7,0,0,0,.23.93l76,46.29a.64.64,0,0,0,.88-.25.7.7,0,0,0-.24-.93l-76-46.29A.68.68,0,0,0,1668.3,566.63Z" fill="#bfddeb" style="mix-blend-mode:multiply"/><path d="M1670.72,562.89a4.71,4.71,0,0,0-6.61,1.87,5.27,5.27,0,0,0,1.77,7,4.7,4.7,0,0,0,6.61-1.87A5.25,5.25,0,0,0,1670.72,562.89Z" fill="#bfddeb" style="mix-blend-mode:multiply"/><path d="M1746.74,609.18a5.25,5.25,0,0,1,1.77,7,4.7,4.7,0,0,1-6.61,1.87,5.26,5.26,0,0,1-1.77-7A4.71,4.71,0,0,1,1746.74,609.18Z" fill="#bfddeb" style="mix-blend-mode:multiply"/><path d="M1592.3,612.92a.66.66,0,0,0-.64.68v92.58a.64.64,0,1,0,1.28,0V613.6A.66.66,0,0,0,1592.3,612.92Z" fill="#bfddeb" style="mix-blend-mode:multiply"/><path d="M1587.46,706.18a4.85,4.85,0,1,0,4.84-5.1A5,5,0,0,0,1587.46,706.18Z" fill="#bfddeb" style="mix-blend-mode:multiply"/><path d="M1587.46,613.6a4.85,4.85,0,1,1,4.84,5.11A5,5,0,0,1,1587.46,613.6Z" fill="#bfddeb" style="mix-blend-mode:multiply"/><path d="M1592.3,705.5a.62.62,0,0,0-.32.09l-76,46.29a.71.71,0,0,0-.24.93.64.64,0,0,0,.88.25l76-46.29a.7.7,0,0,0,.24-.93A.64.64,0,0,0,1592.3,705.5Z" fill="#bfddeb" style="mix-blend-mode:multiply"/><path d="M1594.72,710.6a5.26,5.26,0,0,0,1.77-7,4.71,4.71,0,0,0-6.61-1.87,5.26,5.26,0,0,0-1.77,7A4.71,4.71,0,0,0,1594.72,710.6Z" fill="#bfddeb" style="mix-blend-mode:multiply"/><path d="M1518.7,756.89a4.71,4.71,0,0,1-6.61-1.87,5.26,5.26,0,0,1,1.77-7,4.7,4.7,0,0,1,6.61,1.87A5.26,5.26,0,0,1,1518.7,756.89Z" fill="#bfddeb" style="mix-blend-mode:multiply"/><path d="M1896.34,705.5a.62.62,0,0,0-.32.09l-76,46.29a.71.71,0,0,0-.24.93.64.64,0,0,0,.88.25l76-46.29a.71.71,0,0,0,.23-.93A.63.63,0,0,0,1896.34,705.5Z" fill="#bfddeb" style="mix-blend-mode:multiply"/><path d="M1817.92,748.05a5.26,5.26,0,0,0-1.77,7,4.71,4.71,0,0,0,6.61,1.87,5.25,5.25,0,0,0,1.77-7A4.7,4.7,0,0,0,1817.92,748.05Z" fill="#bfddeb" style="mix-blend-mode:multiply"/><path d="M1893.92,701.76a4.7,4.7,0,0,1,6.61,1.87,5.25,5.25,0,0,1-1.77,7,4.71,4.71,0,0,1-6.61-1.87A5.27,5.27,0,0,1,1893.92,701.76Z" fill="#bfddeb" style="mix-blend-mode:multiply"/><path d="M1920,721.37l-24-14.6a.7.7,0,0,1-.23-.93.63.63,0,0,1,.55-.34.68.68,0,0,1,.33.09L1920,719.8Z" fill="#bfddeb" style="mix-blend-mode:multiply"/><path d="M1898.76,701.76a4.71,4.71,0,0,0-6.61,1.87,5.27,5.27,0,0,0,1.77,7,4.7,4.7,0,0,0,6.61-1.87A5.25,5.25,0,0,0,1898.76,701.76Z" fill="#bfddeb" style="mix-blend-mode:multiply"/><path d="M1668.3,844.37a.61.61,0,0,0-.55.34.7.7,0,0,0,.23.93l76,46.29a.64.64,0,0,0,.88-.25.7.7,0,0,0-.24-.93l-76-46.29A.68.68,0,0,0,1668.3,844.37Z" fill="#bfddeb" style="mix-blend-mode:multiply"/><path d="M1741.9,895.76a4.7,4.7,0,0,0,6.61-1.87,5.25,5.25,0,0,0-1.77-7,4.71,4.71,0,0,0-6.61,1.87A5.26,5.26,0,0,0,1741.9,895.76Z" fill="#bfddeb" style="mix-blend-mode:multiply"/><path d="M1665.88,849.47a5.27,5.27,0,0,1-1.77-7,4.71,4.71,0,0,1,6.61-1.87,5.25,5.25,0,0,1,1.77,7A4.7,4.7,0,0,1,1665.88,849.47Z" fill="#bfddeb" style="mix-blend-mode:multiply"/><path d="M1668.3,751.79a.66.66,0,0,0-.64.68v92.58a.65.65,0,1,0,1.29,0V752.47A.66.66,0,0,0,1668.3,751.79Z" fill="#bfddeb" style="mix-blend-mode:multiply"/><path d="M1663.46,845.05a4.85,4.85,0,1,0,4.84-5.11A5,5,0,0,0,1663.46,845.05Z" fill="#bfddeb" style="mix-blend-mode:multiply"/><ellipse cx="1668.3" cy="752.47" rx="4.84" ry="5.1" fill="#bfddeb" style="mix-blend-mode:multiply"/><path d="M1744.32,705.5a.62.62,0,0,0-.32.09l-76,46.29a.7.7,0,0,0-.24.93.64.64,0,0,0,.88.25l76-46.29a.7.7,0,0,0,.24-.93A.64.64,0,0,0,1744.32,705.5Z" fill="#bfddeb" style="mix-blend-mode:multiply"/><path d="M1665.9,748.05a5.25,5.25,0,0,0-1.77,7,4.7,4.7,0,0,0,6.61,1.87,5.26,5.26,0,0,0,1.77-7A4.71,4.71,0,0,0,1665.9,748.05Z" fill="#bfddeb" style="mix-blend-mode:multiply"/><path d="M1741.9,701.76a4.7,4.7,0,0,1,6.61,1.87,5.25,5.25,0,0,1-1.77,7,4.71,4.71,0,0,1-6.61-1.87A5.26,5.26,0,0,1,1741.9,701.76Z" fill="#bfddeb" style="mix-blend-mode:multiply"/><path d="M1744.32,705.5a.64.64,0,0,0-.56.34.71.71,0,0,0,.24.93l76,46.29a.64.64,0,0,0,.88-.25.7.7,0,0,0-.24-.93l-76-46.29A.62.62,0,0,0,1744.32,705.5Z" fill="#bfddeb" style="mix-blend-mode:multiply"/><path d="M1746.74,701.76a4.71,4.71,0,0,0-6.61,1.87,5.26,5.26,0,0,0,1.77,7,4.7,4.7,0,0,0,6.61-1.87A5.25,5.25,0,0,0,1746.74,701.76Z" fill="#bfddeb" style="mix-blend-mode:multiply"/><path d="M1822.76,748.05a5.25,5.25,0,0,1,1.77,7,4.7,4.7,0,0,1-6.61,1.87,5.26,5.26,0,0,1-1.77-7A4.71,4.71,0,0,1,1822.76,748.05Z" fill="#bfddeb" style="mix-blend-mode:multiply"/><path d="M1668.32,751.79a.66.66,0,0,0-.65.68v92.58a.65.65,0,1,0,1.29,0V752.47A.66.66,0,0,0,1668.32,751.79Z" fill="#bfddeb" style="mix-blend-mode:multiply"/><path d="M1663.48,845.05a4.85,4.85,0,1,0,4.84-5.11A5,5,0,0,0,1663.48,845.05Z" fill="#bfddeb" style="mix-blend-mode:multiply"/><path d="M1663.48,752.47a4.85,4.85,0,1,1,4.84,5.1A5,5,0,0,1,1663.48,752.47Z" fill="#bfddeb" style="mix-blend-mode:multiply"/><path d="M1668.32,844.37a.62.62,0,0,0-.32.09l-76,46.29a.7.7,0,0,0-.24.93.64.64,0,0,0,.88.25l76-46.29a.71.71,0,0,0,.24-.93A.64.64,0,0,0,1668.32,844.37Z" fill="#bfddeb" style="mix-blend-mode:multiply"/><path d="M1670.74,849.47a5.26,5.26,0,0,0,1.77-7,4.71,4.71,0,0,0-6.61-1.87,5.26,5.26,0,0,0-1.77,7A4.7,4.7,0,0,0,1670.74,849.47Z" fill="#bfddeb" style="mix-blend-mode:multiply"/><path d="M1594.72,895.76a4.71,4.71,0,0,1-6.61-1.87,5.26,5.26,0,0,1,1.77-7,4.71,4.71,0,0,1,6.61,1.87A5.26,5.26,0,0,1,1594.72,895.76Z" fill="#bfddeb" style="mix-blend-mode:multiply"/><path d="M1516.28,844.37a.64.64,0,0,0-.56.34.71.71,0,0,0,.24.93l76,46.29a.64.64,0,0,0,.88-.25.7.7,0,0,0-.24-.93l-76-46.29A.62.62,0,0,0,1516.28,844.37Z" fill="#bfddeb" style="mix-blend-mode:multiply"/><path d="M1589.88,895.76a4.71,4.71,0,0,0,6.61-1.87,5.26,5.26,0,0,0-1.77-7,4.71,4.71,0,0,0-6.61,1.87A5.26,5.26,0,0,0,1589.88,895.76Z" fill="#bfddeb" style="mix-blend-mode:multiply"/><path d="M1513.86,849.47a5.26,5.26,0,0,1-1.77-7,4.71,4.71,0,0,1,6.61-1.87,5.26,5.26,0,0,1,1.77,7A4.7,4.7,0,0,1,1513.86,849.47Z" fill="#bfddeb" style="mix-blend-mode:multiply"/><path d="M1516.28,751.79a.66.66,0,0,0-.64.68v92.58a.65.65,0,1,0,1.29,0V752.47A.66.66,0,0,0,1516.28,751.79Z" fill="#bfddeb" style="mix-blend-mode:multiply"/><path d="M1511.44,845.05a4.85,4.85,0,1,0,4.84-5.11A5,5,0,0,0,1511.44,845.05Z" fill="#bfddeb" style="mix-blend-mode:multiply"/><path d="M1511.44,752.47a4.85,4.85,0,1,1,4.84,5.1A5,5,0,0,1,1511.44,752.47Z" fill="#bfddeb" style="mix-blend-mode:multiply"/><path d="M1592.3,705.5a.62.62,0,0,0-.32.09l-76,46.29a.71.71,0,0,0-.23.93.64.64,0,0,0,.88.25l76-46.29a.7.7,0,0,0,.24-.93A.64.64,0,0,0,1592.3,705.5Z" fill="#bfddeb" style="mix-blend-mode:multiply"/><path d="M1513.88,748.05a5.25,5.25,0,0,0-1.77,7,4.7,4.7,0,0,0,6.61,1.87,5.27,5.27,0,0,0,1.77-7A4.71,4.71,0,0,0,1513.88,748.05Z" fill="#bfddeb" style="mix-blend-mode:multiply"/><path d="M1589.88,701.76a4.71,4.71,0,0,1,6.61,1.87,5.26,5.26,0,0,1-1.77,7,4.71,4.71,0,0,1-6.61-1.87A5.26,5.26,0,0,1,1589.88,701.76Z" fill="#bfddeb" style="mix-blend-mode:multiply"/><path d="M1592.3,705.5a.64.64,0,0,0-.56.34.7.7,0,0,0,.24.93l76,46.29a.64.64,0,0,0,.88-.25.71.71,0,0,0-.24-.93l-76-46.29A.62.62,0,0,0,1592.3,705.5Z" fill="#bfddeb" style="mix-blend-mode:multiply"/><path d="M1594.72,701.76a4.71,4.71,0,0,0-6.61,1.87,5.26,5.26,0,0,0,1.77,7,4.71,4.71,0,0,0,6.61-1.87A5.26,5.26,0,0,0,1594.72,701.76Z" fill="#bfddeb" style="mix-blend-mode:multiply"/><path d="M1670.74,748.05a5.26,5.26,0,0,1,1.77,7,4.71,4.71,0,0,1-6.61,1.87,5.26,5.26,0,0,1-1.77-7A4.7,4.7,0,0,1,1670.74,748.05Z" fill="#bfddeb" style="mix-blend-mode:multiply"/><path d="M1516.3,751.79a.66.66,0,0,0-.65.68v92.58a.65.65,0,1,0,1.29,0V752.47A.66.66,0,0,0,1516.3,751.79Z" fill="#bfddeb" style="mix-blend-mode:multiply"/><path d="M1511.46,845.05a4.85,4.85,0,1,0,4.84-5.11A5,5,0,0,0,1511.46,845.05Z" fill="#bfddeb" style="mix-blend-mode:multiply"/><path d="M1511.46,752.47a4.85,4.85,0,1,1,4.84,5.1A5,5,0,0,1,1511.46,752.47Z" fill="#bfddeb" style="mix-blend-mode:multiply"/><path d="M1516.3,844.37a.68.68,0,0,0-.33.09l-76,46.29a.7.7,0,0,0-.24.93.64.64,0,0,0,.88.25l76-46.29a.7.7,0,0,0,.23-.93A.61.61,0,0,0,1516.3,844.37Z" fill="#bfddeb" style="mix-blend-mode:multiply"/><path d="M1518.72,849.47a5.27,5.27,0,0,0,1.77-7,4.71,4.71,0,0,0-6.61-1.87,5.25,5.25,0,0,0-1.77,7A4.7,4.7,0,0,0,1518.72,849.47Z" fill="#bfddeb" style="mix-blend-mode:multiply"/><path d="M1442.7,895.76a4.7,4.7,0,0,1-6.61-1.87,5.25,5.25,0,0,1,1.77-7,4.71,4.71,0,0,1,6.61,1.87A5.27,5.27,0,0,1,1442.7,895.76Z" fill="#bfddeb" style="mix-blend-mode:multiply"/><path d="M1364.26,844.37a.64.64,0,0,0-.56.34.7.7,0,0,0,.24.93l76,46.29a.64.64,0,0,0,.88-.25.71.71,0,0,0-.24-.93l-76-46.29A.62.62,0,0,0,1364.26,844.37Z" fill="#bfddeb" style="mix-blend-mode:multiply"/><path d="M1437.86,895.76a4.71,4.71,0,0,0,6.61-1.87,5.27,5.27,0,0,0-1.77-7,4.7,4.7,0,0,0-6.61,1.87A5.25,5.25,0,0,0,1437.86,895.76Z" fill="#bfddeb" style="mix-blend-mode:multiply"/><path d="M1361.84,849.47a5.25,5.25,0,0,1-1.77-7,4.7,4.7,0,0,1,6.61-1.87,5.26,5.26,0,0,1,1.77,7A4.71,4.71,0,0,1,1361.84,849.47Z" fill="#bfddeb" style="mix-blend-mode:multiply"/><path d="M1364.26,751.79a.65.65,0,0,0-.64.68v92.58a.65.65,0,1,0,1.29,0V752.47A.66.66,0,0,0,1364.26,751.79Z" fill="#bfddeb" style="mix-blend-mode:multiply"/><path d="M1359.42,845.05a4.85,4.85,0,1,0,4.84-5.11A5,5,0,0,0,1359.42,845.05Z" fill="#bfddeb" style="mix-blend-mode:multiply"/><path d="M1359.42,752.47a4.85,4.85,0,1,1,4.84,5.1A5,5,0,0,1,1359.42,752.47Z" fill="#bfddeb" style="mix-blend-mode:multiply"/><path d="M1364.28,751.79a.66.66,0,0,0-.65.68v92.58a.65.65,0,1,0,1.29,0V752.47A.66.66,0,0,0,1364.28,751.79Z" fill="#bfddeb" style="mix-blend-mode:multiply"/><path d="M1359.44,845.05a4.84,4.84,0,1,0,4.84-5.11A5,5,0,0,0,1359.44,845.05Z" fill="#bfddeb" style="mix-blend-mode:multiply"/><path d="M1359.44,752.47a4.84,4.84,0,1,1,4.84,5.1A5,5,0,0,1,1359.44,752.47Z" fill="#bfddeb" style="mix-blend-mode:multiply"/><path d="M1364.28,844.37a.66.66,0,0,0-.33.09l-76,46.29a.71.71,0,0,0-.23.93.64.64,0,0,0,.88.25l76-46.29a.7.7,0,0,0,.23-.93A.63.63,0,0,0,1364.28,844.37Z" fill="#bfddeb" style="mix-blend-mode:multiply"/><path d="M1366.69,849.47a5.26,5.26,0,0,0,1.78-7,4.71,4.71,0,0,0-6.61-1.87,5.26,5.26,0,0,0-1.78,7A4.71,4.71,0,0,0,1366.69,849.47Z" fill="#bfddeb" style="mix-blend-mode:multiply"/><path d="M1290.68,895.76a4.72,4.72,0,0,1-6.62-1.87,5.26,5.26,0,0,1,1.78-7,4.71,4.71,0,0,1,6.61,1.87A5.27,5.27,0,0,1,1290.68,895.76Z" fill="#bfddeb" style="mix-blend-mode:multiply"/><path d="M1592.28,890.66a.66.66,0,0,0-.64.68v92.58a.65.65,0,1,0,1.29,0V891.34A.66.66,0,0,0,1592.28,890.66Z" fill="#bfddeb" style="mix-blend-mode:multiply"/><path d="M1587.44,983.92a4.85,4.85,0,1,0,4.84-5.11A5,5,0,0,0,1587.44,983.92Z" fill="#bfddeb" style="mix-blend-mode:multiply"/><path d="M1587.45,891.34a4.84,4.84,0,1,1,4.83,5.1A5,5,0,0,1,1587.45,891.34Z" fill="#bfddeb" style="mix-blend-mode:multiply"/><path d="M1668.3,844.37a.62.62,0,0,0-.32.09l-76,46.29a.7.7,0,0,0-.24.93.64.64,0,0,0,.88.25l76-46.29a.71.71,0,0,0,.23-.93A.64.64,0,0,0,1668.3,844.37Z" fill="#bfddeb" style="mix-blend-mode:multiply"/><path d="M1589.88,886.92a5.26,5.26,0,0,0-1.77,7,4.71,4.71,0,0,0,6.61,1.87,5.26,5.26,0,0,0,1.77-7A4.71,4.71,0,0,0,1589.88,886.92Z" fill="#bfddeb" style="mix-blend-mode:multiply"/><path d="M1665.88,840.63a4.7,4.7,0,0,1,6.61,1.87,5.25,5.25,0,0,1-1.77,7,4.71,4.71,0,0,1-6.61-1.87A5.27,5.27,0,0,1,1665.88,840.63Z" fill="#bfddeb" style="mix-blend-mode:multiply"/><path d="M1668.3,844.37a.61.61,0,0,0-.55.34.7.7,0,0,0,.23.93l76,46.29a.64.64,0,0,0,.88-.25.7.7,0,0,0-.24-.93l-76-46.29A.68.68,0,0,0,1668.3,844.37Z" fill="#bfddeb" style="mix-blend-mode:multiply"/><path d="M1670.72,840.63a4.71,4.71,0,0,0-6.61,1.87,5.27,5.27,0,0,0,1.77,7,4.7,4.7,0,0,0,6.61-1.87A5.25,5.25,0,0,0,1670.72,840.63Z" fill="#bfddeb" style="mix-blend-mode:multiply"/><path d="M1746.74,886.92a5.25,5.25,0,0,1,1.77,7,4.7,4.7,0,0,1-6.61,1.87,5.26,5.26,0,0,1-1.77-7A4.71,4.71,0,0,1,1746.74,886.92Z" fill="#bfddeb" style="mix-blend-mode:multiply"/><path d="M1592.3,890.66a.65.65,0,0,0-.64.68v92.58a.64.64,0,1,0,1.28,0V891.34A.65.65,0,0,0,1592.3,890.66Z" fill="#bfddeb" style="mix-blend-mode:multiply"/><path d="M1587.46,983.92a4.85,4.85,0,1,0,4.84-5.11A5,5,0,0,0,1587.46,983.92Z" fill="#bfddeb" style="mix-blend-mode:multiply"/><path d="M1587.46,891.34a4.85,4.85,0,1,1,4.84,5.1A5,5,0,0,1,1587.46,891.34Z" fill="#bfddeb" style="mix-blend-mode:multiply"/><path d="M1592.3,983.24a.62.62,0,0,0-.32.09l-76,46.29a.71.71,0,0,0-.24.93.64.64,0,0,0,.88.25l76-46.29a.7.7,0,0,0,.24-.93A.64.64,0,0,0,1592.3,983.24Z" fill="#bfddeb" style="mix-blend-mode:multiply"/><path d="M1594.72,988.34a5.26,5.26,0,0,0,1.77-7,4.7,4.7,0,0,0-6.61-1.87,5.26,5.26,0,0,0-1.77,7A4.71,4.71,0,0,0,1594.72,988.34Z" fill="#bfddeb" style="mix-blend-mode:multiply"/><path d="M1518.7,1034.63a4.71,4.71,0,0,1-6.61-1.87,5.26,5.26,0,0,1,1.77-7,4.7,4.7,0,0,1,6.61,1.86A5.27,5.27,0,0,1,1518.7,1034.63Z" fill="#bfddeb" style="mix-blend-mode:multiply"/><path d="M1440.26,983.24a.64.64,0,0,0-.56.34.71.71,0,0,0,.24.93l76,46.29a.64.64,0,0,0,.88-.25.7.7,0,0,0-.24-.93l-76-46.29A.62.62,0,0,0,1440.26,983.24Z" fill="#bfddeb" style="mix-blend-mode:multiply"/><path d="M1513.86,1034.63a4.7,4.7,0,0,0,6.61-1.87,5.26,5.26,0,0,0-1.77-7,4.7,4.7,0,0,0-6.61,1.86A5.27,5.27,0,0,0,1513.86,1034.63Z" fill="#bfddeb" style="mix-blend-mode:multiply"/><path d="M1437.84,988.34a5.26,5.26,0,0,1-1.77-7,4.7,4.7,0,0,1,6.61-1.87,5.25,5.25,0,0,1,1.77,7A4.7,4.7,0,0,1,1437.84,988.34Z" fill="#bfddeb" style="mix-blend-mode:multiply"/><path d="M1440.26,890.66a.66.66,0,0,0-.64.68v92.58a.65.65,0,1,0,1.29,0V891.34A.66.66,0,0,0,1440.26,890.66Z" fill="#bfddeb" style="mix-blend-mode:multiply"/><path d="M1435.42,983.92a4.85,4.85,0,1,0,4.84-5.11A5,5,0,0,0,1435.42,983.92Z" fill="#bfddeb" style="mix-blend-mode:multiply"/><path d="M1435.42,891.34a4.85,4.85,0,1,1,4.84,5.1A5,5,0,0,1,1435.42,891.34Z" fill="#bfddeb" style="mix-blend-mode:multiply"/><path d="M1516.28,844.37a.62.62,0,0,0-.32.09l-76,46.29a.7.7,0,0,0-.24.93.64.64,0,0,0,.88.25l76-46.29a.7.7,0,0,0,.24-.93A.64.64,0,0,0,1516.28,844.37Z" fill="#bfddeb" style="mix-blend-mode:multiply"/><path d="M1437.86,886.92a5.25,5.25,0,0,0-1.77,7,4.7,4.7,0,0,0,6.61,1.87,5.27,5.27,0,0,0,1.77-7A4.71,4.71,0,0,0,1437.86,886.92Z" fill="#bfddeb" style="mix-blend-mode:multiply"/><path d="M1513.86,840.63a4.71,4.71,0,0,1,6.61,1.87,5.26,5.26,0,0,1-1.77,7,4.71,4.71,0,0,1-6.61-1.87A5.26,5.26,0,0,1,1513.86,840.63Z" fill="#bfddeb" style="mix-blend-mode:multiply"/><path d="M1516.28,844.37a.64.64,0,0,0-.56.34.71.71,0,0,0,.24.93l76,46.29a.64.64,0,0,0,.88-.25.7.7,0,0,0-.24-.93l-76-46.29A.62.62,0,0,0,1516.28,844.37Z" fill="#bfddeb" style="mix-blend-mode:multiply"/><path d="M1518.7,840.63a4.71,4.71,0,0,0-6.61,1.87,5.26,5.26,0,0,0,1.77,7,4.7,4.7,0,0,0,6.61-1.87A5.26,5.26,0,0,0,1518.7,840.63Z" fill="#bfddeb" style="mix-blend-mode:multiply"/><path d="M1594.72,886.92a5.26,5.26,0,0,1,1.77,7,4.71,4.71,0,0,1-6.61,1.87,5.26,5.26,0,0,1-1.77-7A4.71,4.71,0,0,1,1594.72,886.92Z" fill="#bfddeb" style="mix-blend-mode:multiply"/><path d="M1440.28,890.66a.66.66,0,0,0-.65.68v92.58a.65.65,0,1,0,1.29,0V891.34A.66.66,0,0,0,1440.28,890.66Z" fill="#bfddeb" style="mix-blend-mode:multiply"/><path d="M1435.44,983.92a4.85,4.85,0,1,0,4.84-5.11A5,5,0,0,0,1435.44,983.92Z" fill="#bfddeb" style="mix-blend-mode:multiply"/><path d="M1435.44,891.34a4.85,4.85,0,1,1,4.84,5.1A5,5,0,0,1,1435.44,891.34Z" fill="#bfddeb" style="mix-blend-mode:multiply"/><path d="M1440.28,983.24a.62.62,0,0,0-.32.09l-76,46.29a.7.7,0,0,0-.24.93.64.64,0,0,0,.88.25l76-46.29a.71.71,0,0,0,.24-.93A.64.64,0,0,0,1440.28,983.24Z" fill="#bfddeb" style="mix-blend-mode:multiply"/><path d="M1442.7,988.34a5.27,5.27,0,0,0,1.77-7,4.7,4.7,0,0,0-6.61-1.87,5.25,5.25,0,0,0-1.77,7A4.7,4.7,0,0,0,1442.7,988.34Z" fill="#bfddeb" style="mix-blend-mode:multiply"/><path d="M1366.68,1034.63a4.7,4.7,0,0,1-6.61-1.87,5.25,5.25,0,0,1,1.77-7,4.7,4.7,0,0,1,6.61,1.86A5.27,5.27,0,0,1,1366.68,1034.63Z" fill="#bfddeb" style="mix-blend-mode:multiply"/><path d="M1288.24,983.24a.64.64,0,0,0-.56.34.7.7,0,0,0,.24.93l76,46.29a.64.64,0,0,0,.88-.25.71.71,0,0,0-.24-.93l-76-46.29A.62.62,0,0,0,1288.24,983.24Z" fill="#bfddeb" style="mix-blend-mode:multiply"/><path d="M1361.84,1034.63a4.71,4.71,0,0,0,6.61-1.87,5.26,5.26,0,0,0-1.77-7,4.7,4.7,0,0,0-6.61,1.86A5.26,5.26,0,0,0,1361.84,1034.63Z" fill="#bfddeb" style="mix-blend-mode:multiply"/><path d="M1285.82,988.34a5.26,5.26,0,0,1-1.77-7,4.7,4.7,0,0,1,6.61-1.87,5.26,5.26,0,0,1,1.77,7A4.71,4.71,0,0,1,1285.82,988.34Z" fill="#bfddeb" style="mix-blend-mode:multiply"/><path d="M1288.24,890.66a.66.66,0,0,0-.64.68v92.58a.65.65,0,1,0,1.29,0V891.34A.65.65,0,0,0,1288.24,890.66Z" fill="#bfddeb" style="mix-blend-mode:multiply"/><path d="M1283.4,983.92a4.85,4.85,0,1,0,4.84-5.11A5,5,0,0,0,1283.4,983.92Z" fill="#bfddeb" style="mix-blend-mode:multiply"/><path d="M1283.4,891.34a4.85,4.85,0,1,1,4.84,5.1A5,5,0,0,1,1283.4,891.34Z" fill="#bfddeb" style="mix-blend-mode:multiply"/><path d="M1364.26,844.37a.62.62,0,0,0-.32.09l-76,46.29a.71.71,0,0,0-.23.93.64.64,0,0,0,.88.25l76-46.29a.71.71,0,0,0,.24-.93A.64.64,0,0,0,1364.26,844.37Z" fill="#bfddeb" style="mix-blend-mode:multiply"/><path d="M1285.84,886.92a5.26,5.26,0,0,0-1.78,7,4.72,4.72,0,0,0,6.62,1.87,5.27,5.27,0,0,0,1.77-7A4.71,4.71,0,0,0,1285.84,886.92Z" fill="#bfddeb" style="mix-blend-mode:multiply"/><path d="M1361.84,840.63a4.71,4.71,0,0,1,6.61,1.87,5.26,5.26,0,0,1-1.77,7,4.7,4.7,0,0,1-6.61-1.87A5.25,5.25,0,0,1,1361.84,840.63Z" fill="#bfddeb" style="mix-blend-mode:multiply"/><path d="M1364.26,844.37a.64.64,0,0,0-.56.34.7.7,0,0,0,.24.93l76,46.29a.64.64,0,0,0,.88-.25.71.71,0,0,0-.24-.93l-76-46.29A.62.62,0,0,0,1364.26,844.37Z" fill="#bfddeb" style="mix-blend-mode:multiply"/><path d="M1366.68,840.63a4.7,4.7,0,0,0-6.61,1.87,5.25,5.25,0,0,0,1.77,7,4.71,4.71,0,0,0,6.61-1.87A5.26,5.26,0,0,0,1366.68,840.63Z" fill="#bfddeb" style="mix-blend-mode:multiply"/><path d="M1442.7,886.92a5.27,5.27,0,0,1,1.77,7,4.71,4.71,0,0,1-6.61,1.87,5.25,5.25,0,0,1-1.77-7A4.7,4.7,0,0,1,1442.7,886.92Z" fill="#bfddeb" style="mix-blend-mode:multiply"/><path d="M1288.26,890.66a.66.66,0,0,0-.65.68v92.58a.65.65,0,1,0,1.29,0V891.34A.66.66,0,0,0,1288.26,890.66Z" fill="#bfddeb" style="mix-blend-mode:multiply"/><path d="M1283.42,983.92a4.85,4.85,0,1,0,4.84-5.11A5,5,0,0,0,1283.42,983.92Z" fill="#bfddeb" style="mix-blend-mode:multiply"/><path d="M1283.42,891.34a4.85,4.85,0,1,1,4.84,5.1A5,5,0,0,1,1283.42,891.34Z" fill="#bfddeb" style="mix-blend-mode:multiply"/><path d="M1288.26,983.24a.68.68,0,0,0-.33.09l-76,46.29a.71.71,0,0,0-.23.93.64.64,0,0,0,.88.25l76-46.29a.7.7,0,0,0,.23-.93A.63.63,0,0,0,1288.26,983.24Z" fill="#bfddeb" style="mix-blend-mode:multiply"/><path d="M1290.68,988.34a5.27,5.27,0,0,0,1.77-7,4.7,4.7,0,0,0-6.61-1.87,5.26,5.26,0,0,0-1.78,7A4.72,4.72,0,0,0,1290.68,988.34Z" fill="#bfddeb" style="mix-blend-mode:multiply"/><path d="M1214.66,1034.63a4.7,4.7,0,0,1-6.61-1.87,5.25,5.25,0,0,1,1.77-7,4.7,4.7,0,0,1,6.61,1.86A5.28,5.28,0,0,1,1214.66,1034.63Z" fill="#bfddeb" style="mix-blend-mode:multiply"/><path d="M1136.22,983.24a.64.64,0,0,0-.56.34.71.71,0,0,0,.23.93l76,46.29a.64.64,0,0,0,.88-.25.7.7,0,0,0-.23-.93l-76-46.29A.62.62,0,0,0,1136.22,983.24Z" fill="#bfddeb" style="mix-blend-mode:multiply"/><path d="M1209.82,1034.63a4.71,4.71,0,0,0,6.61-1.87,5.27,5.27,0,0,0-1.77-7,4.7,4.7,0,0,0-6.61,1.86A5.26,5.26,0,0,0,1209.82,1034.63Z" fill="#bfddeb" style="mix-blend-mode:multiply"/><path d="M1133.8,988.34a5.25,5.25,0,0,1-1.77-7,4.7,4.7,0,0,1,6.61-1.87,5.27,5.27,0,0,1,1.77,7A4.71,4.71,0,0,1,1133.8,988.34Z" fill="#bfddeb" style="mix-blend-mode:multiply"/><path d="M1515.64,1080v-49.79a.65.65,0,1,1,1.29,0V1080Z" fill="#bfddeb" style="mix-blend-mode:multiply"/><path d="M1511.44,1030.21a4.85,4.85,0,1,1,4.84,5.1A5,5,0,0,1,1511.44,1030.21Z" fill="#bfddeb" style="mix-blend-mode:multiply"/><path d="M1592.3,983.24a.62.62,0,0,0-.32.09l-76,46.29a.71.71,0,0,0-.23.93.64.64,0,0,0,.88.25l76-46.29a.7.7,0,0,0,.24-.93A.64.64,0,0,0,1592.3,983.24Z" fill="#bfddeb" style="mix-blend-mode:multiply"/><path d="M1513.88,1025.79a5.25,5.25,0,0,0-1.77,7,4.7,4.7,0,0,0,6.61,1.87,5.28,5.28,0,0,0,1.77-7A4.7,4.7,0,0,0,1513.88,1025.79Z" fill="#bfddeb" style="mix-blend-mode:multiply"/><path d="M1589.88,979.5a4.7,4.7,0,0,1,6.61,1.86,5.27,5.27,0,0,1-1.77,7,4.71,4.71,0,0,1-6.61-1.87A5.26,5.26,0,0,1,1589.88,979.5Z" fill="#bfddeb" style="mix-blend-mode:multiply"/><path d="M1515.65,1080v-49.79a.65.65,0,1,1,1.29,0V1080Z" fill="#bfddeb" style="mix-blend-mode:multiply"/><path d="M1511.46,1030.21a4.85,4.85,0,1,1,4.84,5.1A5,5,0,0,1,1511.46,1030.21Z" fill="#bfddeb" style="mix-blend-mode:multiply"/><path d="M1363.61,1080v-49.79a.64.64,0,1,1,1.28,0V1080Z" fill="#bfddeb" style="mix-blend-mode:multiply"/><path d="M1359.42,1030.21a4.85,4.85,0,1,1,4.84,5.1A5,5,0,0,1,1359.42,1030.21Z" fill="#bfddeb" style="mix-blend-mode:multiply"/><path d="M1440.28,983.24a.62.62,0,0,0-.32.09l-76,46.29a.7.7,0,0,0-.23.93.64.64,0,0,0,.88.25l76-46.29a.71.71,0,0,0,.24-.93A.64.64,0,0,0,1440.28,983.24Z" fill="#bfddeb" style="mix-blend-mode:multiply"/><path d="M1361.85,1025.79a5.27,5.27,0,0,0-1.77,7,4.71,4.71,0,0,0,6.61,1.87,5.27,5.27,0,0,0,1.78-7A4.71,4.71,0,0,0,1361.85,1025.79Z" fill="#bfddeb" style="mix-blend-mode:multiply"/><path d="M1437.86,979.5a4.7,4.7,0,0,1,6.61,1.86,5.28,5.28,0,0,1-1.77,7,4.7,4.7,0,0,1-6.61-1.87A5.25,5.25,0,0,1,1437.86,979.5Z" fill="#bfddeb" style="mix-blend-mode:multiply"/><path d="M1440.28,983.24a.64.64,0,0,0-.56.34.7.7,0,0,0,.24.93l76,46.29a.63.63,0,0,0,.88-.25.7.7,0,0,0-.23-.93l-76-46.29A.62.62,0,0,0,1440.28,983.24Z" fill="#bfddeb" style="mix-blend-mode:multiply"/><path d="M1442.7,979.5a4.7,4.7,0,0,0-6.61,1.87,5.25,5.25,0,0,0,1.77,7,4.71,4.71,0,0,0,6.61-1.87A5.27,5.27,0,0,0,1442.7,979.5Z" fill="#bfddeb" style="mix-blend-mode:multiply"/><path d="M1518.72,1025.79a5.27,5.27,0,0,1,1.77,7,4.71,4.71,0,0,1-6.61,1.87,5.26,5.26,0,0,1-1.77-7A4.7,4.7,0,0,1,1518.72,1025.79Z" fill="#bfddeb" style="mix-blend-mode:multiply"/><path d="M1363.63,1080v-49.79a.65.65,0,1,1,1.29,0V1080Z" fill="#bfddeb" style="mix-blend-mode:multiply"/><path d="M1359.44,1030.21a4.84,4.84,0,1,1,4.84,5.1A5,5,0,0,1,1359.44,1030.21Z" fill="#bfddeb" style="mix-blend-mode:multiply"/><path d="M1211.59,1080v-49.79a.65.65,0,1,1,1.29,0V1080Z" fill="#bfddeb" style="mix-blend-mode:multiply"/><path d="M1207.4,1030.21a4.85,4.85,0,1,1,4.84,5.1A5,5,0,0,1,1207.4,1030.21Z" fill="#bfddeb" style="mix-blend-mode:multiply"/><path d="M1288.26,983.24a.68.68,0,0,0-.33.09l-76,46.29a.7.7,0,0,0-.23.93.64.64,0,0,0,.88.25l76-46.29a.7.7,0,0,0,.23-.93A.63.63,0,0,0,1288.26,983.24Z" fill="#bfddeb" style="mix-blend-mode:multiply"/><path d="M1209.83,1025.79a5.27,5.27,0,0,0-1.77,7,4.71,4.71,0,0,0,6.61,1.87,5.26,5.26,0,0,0,1.77-7A4.7,4.7,0,0,0,1209.83,1025.79Z" fill="#bfddeb" style="mix-blend-mode:multiply"/><path d="M1285.84,979.5a4.7,4.7,0,0,1,6.61,1.86,5.28,5.28,0,0,1-1.77,7,4.72,4.72,0,0,1-6.62-1.87A5.26,5.26,0,0,1,1285.84,979.5Z" fill="#bfddeb" style="mix-blend-mode:multiply"/><path d="M1288.26,983.24a.63.63,0,0,0-.56.34.71.71,0,0,0,.23.93l76,46.29a.63.63,0,0,0,.88-.25.7.7,0,0,0-.23-.93l-76-46.29A.62.62,0,0,0,1288.26,983.24Z" fill="#bfddeb" style="mix-blend-mode:multiply"/><path d="M1290.68,979.5a4.71,4.71,0,0,0-6.62,1.87,5.26,5.26,0,0,0,1.78,7,4.71,4.71,0,0,0,6.61-1.87A5.27,5.27,0,0,0,1290.68,979.5Z" fill="#bfddeb" style="mix-blend-mode:multiply"/><path d="M1366.69,1025.79a5.26,5.26,0,0,1,1.78,7,4.71,4.71,0,0,1-6.61,1.87,5.27,5.27,0,0,1-1.78-7A4.7,4.7,0,0,1,1366.69,1025.79Z" fill="#bfddeb" style="mix-blend-mode:multiply"/><path d="M1211.61,1080v-49.79a.65.65,0,1,1,1.29,0V1080Z" fill="#bfddeb" style="mix-blend-mode:multiply"/><path d="M1207.41,1030.21a4.85,4.85,0,1,1,4.84,5.1A5,5,0,0,1,1207.41,1030.21Z" fill="#bfddeb" style="mix-blend-mode:multiply"/><path d="M1136.23,983.24a.64.64,0,0,0-.56.34.71.71,0,0,0,.24.93l76,46.29a.64.64,0,0,0,.88-.25.71.71,0,0,0-.23-.93l-76-46.29A.62.62,0,0,0,1136.23,983.24Z" fill="#bfddeb" style="mix-blend-mode:multiply"/><path d="M1138.65,979.5a4.7,4.7,0,0,0-6.61,1.87,5.27,5.27,0,0,0,1.77,7,4.7,4.7,0,0,0,6.61-1.87A5.25,5.25,0,0,0,1138.65,979.5Z" fill="#bfddeb" style="mix-blend-mode:multiply"/><path d="M1214.67,1025.79a5.25,5.25,0,0,1,1.77,7,4.7,4.7,0,0,1-6.61,1.87,5.28,5.28,0,0,1-1.77-7A4.7,4.7,0,0,1,1214.67,1025.79Z" fill="#bfddeb" style="mix-blend-mode:multiply"/></g></g></g></svg>