<svg id="katman_1" data-name="katman 1" xmlns="http://www.w3.org/2000/svg" viewBox="0 0 1000 481"><g style="isolation:isolate"><text transform="translate(274.72 314.15)" font-size="189.16" font-family="NasalizationRg-Regular, Nasalization" letter-spacing="-0.08em" style="isolation:isolate">U<tspan x="123.33" y="0" letter-spacing="-0.04em">A</tspan></text><text transform="translate(546.36 314.15)" font-size="189.16" font-family="NasalizationRg-Regular, Nasalization" style="isolation:isolate">LI</text><text transform="translate(717.16 314.15)" font-size="189.16" font-family="NasalizationRg-Regular, Nasalization" letter-spacing="0.02em" style="isolation:isolate">T</text><text transform="translate(828.96 314.15)" font-size="189.16" font-family="NasalizationRg-Regular, Nasalization" style="isolation:isolate">Y</text></g><path d="M21.31,146.84c-.44-24.12,5-45.26,16.62-64.85,2.54-4.28,4.24-5,7.84-.88C56,92.9,66.48,104.42,77,115.91c2.91,3.16,3.51,6.1,2.69,10.49-5.92,31.69.79,59.69,26.25,81.12,16.31,13.73,35.55,17.61,56.24,13.08,5.07-1.11,8-.08,11.27,3.68Q208.64,264.36,244.3,304c4.33,4.8,3.63,6.23-2.39,7.42-38.07,7.49-74-5.38-92.32-37.3-2.36-4.12-5.7-3.7-9.31-3.94C90.28,267,53.9,242.8,31.73,197.94,23.65,181.56,20.69,163.74,21.31,146.84Z"/><path d="M274.69,145.3c.47,28-7.8,51.86-22.84,73.82-4.09,6-6.28,5.29-10.42.24-8.34-10.17-17.1-20-26.07-29.61-4-4.23-4.88-7.68-2.53-13.44,14.38-35.07,1.46-77.69-29.35-96.79C163.7,67.26,142.59,66.22,121.23,75c-4.76,2-7.19,1.5-10.42-2.28-8.54-10-17.43-19.71-26.37-29.34C81.13,39.83,81.78,38.15,86,36,144.59,5.43,229.53,20.11,264.23,94A112.37,112.37,0,0,1,274.69,145.3Z" fill="#3498db"/><g style="isolation:isolate"><text transform="translate(25.96 457.06)" font-size="151.33" font-family="NasalizationRg-Regular, Nasalization" letter-spacing="0.02em" style="isolation:isolate">REPO</text><text transform="translate(480.24 457.06)" font-size="151.33" font-family="NasalizationRg-Regular, Nasalization" letter-spacing="0.01em" style="isolation:isolate">R</text><text transform="translate(590.11 457.06)" font-size="151.33" font-family="NasalizationRg-Regular, Nasalization" letter-spacing="0.02em" style="isolation:isolate">TING</text></g></svg>