<svg id="katman_1" data-name="katman 1" xmlns="http://www.w3.org/2000/svg" viewBox="0 0 512 512"><path d="M46.85,222.27c-.73-39.83,8.3-74.72,27.45-107.07,4.18-7.07,7-8.31,12.94-1.44,16.84,19.46,34.19,38.48,51.6,57.44,4.8,5.23,5.79,10.08,4.44,17.33-9.78,52.32,1.3,98.54,43.33,133.93,26.94,22.67,58.71,29.07,92.85,21.59,8.38-1.83,13.15-.13,18.61,6.09q58.13,66.17,117,131.68c7.14,7.93,6,10.28-4,12.24-62.84,12.38-122.2-8.87-152.42-61.58-3.9-6.8-9.41-6.11-15.38-6.5-82.61-5.41-142.61-45.28-179.21-119.34C50.72,279.59,45.83,250.18,46.85,222.27Z" fill="#fafafb"/><path d="M465.19,219.73c.78,46.17-12.88,85.63-37.7,121.88-6.75,9.85-10.37,8.74-17.22.39-13.76-16.78-28.22-33-43-48.87-6.54-7-8.07-12.69-4.17-22.19,23.74-57.92,2.4-128.27-48.46-159.81-32.66-20.25-67.52-22-102.78-7.46-7.87,3.24-11.88,2.49-17.21-3.76-14.09-16.51-28.77-32.53-43.54-48.44-5.45-5.88-4.39-8.65,2.5-12.24C250.39-11.2,390.63,13,447.92,135.05A185.65,185.65,0,0,1,465.19,219.73Z" fill="#3498db"/></svg>